<svg width="291" height="391" viewBox="0 0 291 391" fill="none" xmlns="http://www.w3.org/2000/svg">
<path opacity="0.05" d="M144.387 390.825C229.626 390.825 290.591 343.943 290.405 279.087C290.591 231.835 260.572 198.11 204.795 191.068V188.103C247.23 180.506 276.508 150.487 276.322 107.867C276.508 48.0142 224.067 0.947266 145.498 0.947266C67.6712 0.947266 9.11549 46.5318 8.00367 112.129H84.9044C85.8309 83.2218 112.329 64.5062 145.128 64.5062C177.556 64.5062 199.236 84.1483 199.051 112.685C199.236 142.519 173.85 162.717 137.345 162.717H101.952V221.643H137.345C180.335 221.643 207.204 243.138 207.019 273.713C207.204 303.918 181.262 324.672 144.572 324.672C109.179 324.672 82.6808 306.141 81.1983 278.346H0.40625C1.70337 344.684 61.0003 390.825 144.387 390.825Z" fill="white"/>
</svg>
