<svg width="66" height="66" viewBox="0 0 66 66" fill="none" xmlns="http://www.w3.org/2000/svg">
<g clip-path="url(#clip0_3433_178)">
<path d="M48.922 39.9641L57.4843 31.4915C60.6822 28.2936 66.8326 32.3282 63.5098 36.2373L53.1419 48.4352C52.736 48.9125 52.2696 49.3357 51.7551 49.6936C50.0838 50.7617 48.0933 51.1176 46.132 51.1176H30.7462C29.6335 51.1176 28.5213 51.182 27.416 51.3104L22.9909 51.8075L13.8125 42.9008C13.8125 42.9008 19.0192 33.0682 29.233 35.8943C31.1432 36.4232 33.1198 36.675 35.1019 36.675H45.2136C49.9738 36.675 50.0114 44.2385 45.1739 44.2385H36.3713" fill="white"/>
<path d="M16.9617 63.3978L25.6935 54.4395C25.696 54.4371 25.696 54.4331 25.6935 54.4306L10.8772 40.0525C10.8747 40.05 10.8707 40.0505 10.8683 40.0525L2.0542 49.203L16.9617 63.3978Z" fill="#FFD54F" fill-opacity="0.4"/>
<path d="M12.5318 13.3267C9.76411 13.5889 7.59863 15.9194 7.59863 18.756V24.5629C7.59863 25.5656 8.41149 26.379 9.41468 26.379H21.8673C22.8704 26.379 23.6833 25.5656 23.6833 24.5629V18.756C23.6833 15.9174 21.5149 13.5849 18.7437 13.3262" fill="#FFD54F"/>
<path d="M21.7343 8.06661C21.7343 11.432 19.0062 14.1601 15.6408 14.1601C12.2754 14.1601 9.54736 11.432 9.54736 8.06661C9.54736 4.70118 12.2754 1.97266 15.6408 1.97266C19.0062 1.97266 21.7343 4.70118 21.7343 8.06661Z" fill="white"/>
<path d="M28.6167 13.3267C25.8491 13.5889 23.6831 15.9194 23.6831 18.756V24.5629C23.6831 25.5656 24.4965 26.379 25.4996 26.379H37.9522C38.9554 26.379 39.7683 25.5656 39.7683 24.5629V18.756C39.7683 15.9174 37.5993 13.5849 34.8287 13.3262" fill="url(#paint0_linear_3433_178)"/>
<path d="M37.8192 8.06661C37.8192 11.432 35.0912 14.1601 31.7258 14.1601C28.3604 14.1601 25.6318 11.432 25.6318 8.06661C25.6318 4.70118 28.3604 1.97266 31.7258 1.97266C35.0912 1.97266 37.8192 4.70118 37.8192 8.06661Z" fill="white"/>
<path d="M44.7017 13.3267C41.9335 13.5889 39.7681 15.9194 39.7681 18.756V24.5629C39.7681 25.5656 40.5814 26.379 41.5841 26.379H54.0367C55.0399 26.379 55.8532 25.5656 55.8532 24.5629V18.756C55.8532 15.9174 53.6843 13.5849 50.9131 13.3262" fill="#FFD54F"/>
<path d="M53.9047 8.06661C53.9047 11.432 51.1762 14.1601 47.8107 14.1601C44.4453 14.1601 41.7173 11.432 41.7173 8.06661C41.7173 4.70118 44.4453 1.97266 47.8107 1.97266C51.1762 1.97266 53.9047 4.70118 53.9047 8.06661Z" fill="white"/>
<path d="M64.2063 30.5515C63.2339 29.6544 61.911 29.1003 60.5767 29.0309C59.0615 28.9526 57.642 29.4928 56.5848 30.5505L49.3613 37.6982C49.2185 37.4509 49.0554 37.2175 48.8725 37.0009C47.9839 35.9456 46.6843 35.3647 45.2137 35.3647H35.1016C33.1948 35.3647 31.3347 35.1174 29.5731 34.6302C24.9805 33.3599 20.593 34.2877 16.8841 37.3151C15.3759 38.5463 14.2756 39.8855 13.5797 40.8619L11.7666 39.1024C11.5282 38.8709 11.205 38.7396 10.8725 38.7396C10.8695 38.7396 10.867 38.7396 10.864 38.7396C10.5196 38.7421 10.1865 38.8853 9.94759 39.1331L1.13354 48.2832C0.89761 48.5281 0.769238 48.8572 0.776673 49.1972C0.784108 49.5377 0.926358 49.8609 1.17269 50.0953L16.0802 64.2901C16.3275 64.5255 16.6447 64.643 16.9615 64.643C17.294 64.643 17.6266 64.5136 17.8769 64.2569L26.6087 55.2986C26.8471 55.0537 26.9794 54.7192 26.973 54.3772C26.9665 54.0402 26.8253 53.715 26.5834 53.4801L25.8231 52.7426L27.5633 52.5468C28.616 52.4243 29.6866 52.3624 30.7463 52.3624H46.1316C48.6317 52.3624 50.755 51.8157 52.4432 50.7372C52.4571 50.7283 52.4709 50.7188 52.4848 50.7094C53.0895 50.2891 53.6382 49.791 54.115 49.2294L64.4829 37.0321C66.2573 34.9449 66.1463 32.3403 64.2063 30.5515ZM16.9282 61.5685L3.86603 49.1308L10.9027 41.8255L23.8886 54.4272L16.9282 61.5685ZM62.5355 35.3766L52.1676 47.5745C51.8385 47.9616 51.4613 48.3055 51.0455 48.597C49.7781 49.3994 48.1251 49.8068 46.1316 49.8068H30.7458C29.5885 49.8068 28.4183 49.8748 27.2728 50.0081L23.4475 50.4373L15.4378 42.6646C15.9945 41.8394 17.018 40.5056 18.5004 39.2952C21.5823 36.7793 25.0786 36.0383 28.8916 37.0936C30.8752 37.6422 32.9643 37.9208 35.1016 37.9208H45.2137C47.0297 37.9208 47.5145 39.494 47.5145 40.4233C47.5145 41.1023 47.2964 41.7487 46.9162 42.1967C46.5039 42.682 45.9175 42.9278 45.1735 42.9278H36.3709C35.6651 42.9278 35.0931 43.5003 35.0931 44.2061C35.0931 44.9119 35.6651 45.4838 36.3709 45.4838H45.1735C46.6595 45.4838 47.97 44.9039 48.8641 43.8512C49.6081 42.9759 50.0324 41.825 50.068 40.5948L58.3874 32.3626C59.5765 31.1736 61.4342 31.472 62.4735 32.4305C63.0108 32.9262 63.7335 33.9675 62.5355 35.3766Z" fill="url(#paint1_linear_3433_178)"/>
<path d="M32.3856 43.8654C32.2245 43.1779 31.5371 42.7522 30.8496 42.9128C30.1626 43.0739 29.7359 43.7613 29.8975 44.4488L29.9094 44.5008C30.0476 45.0896 30.5725 45.4872 31.1524 45.4872C31.2491 45.4872 31.3472 45.4762 31.4454 45.4534C32.1328 45.2924 32.5591 44.6044 32.398 43.9174L32.3856 43.8654Z" fill="url(#paint2_linear_3433_178)"/>
<path d="M9.41462 27.6252H21.8672C22.5452 27.6252 23.1727 27.4051 23.6832 27.0334C24.1938 27.4051 24.8212 27.6252 25.4993 27.6252H37.9524C38.6304 27.6252 39.2579 27.4051 39.7684 27.0334C40.2789 27.4051 40.9064 27.6252 41.5844 27.6252H54.037C55.743 27.6252 57.1308 26.2369 57.1308 24.5309V18.7239C57.1308 16.1158 55.6712 13.8502 53.4864 12.7325C54.5451 11.4558 55.1825 9.81816 55.1825 8.03384C55.1825 3.96905 51.8755 0.662109 47.8107 0.662109C43.746 0.662109 40.439 3.96905 40.439 8.03384C40.439 9.81816 41.0764 11.4563 42.1351 12.7325C41.1909 13.2163 40.3825 13.9147 39.7684 14.7617C39.1543 13.9142 38.3459 13.2158 37.4012 12.7325C38.4599 11.4563 39.0973 9.81816 39.0973 8.03384C39.0973 3.96905 35.7904 0.662109 31.7256 0.662109C27.6608 0.662109 24.3539 3.96905 24.3539 8.03384C24.3539 9.81816 24.9917 11.4563 26.0504 12.733C25.1057 13.2163 24.2973 13.9147 23.6832 14.7622C23.0691 13.9147 22.2607 13.2163 21.316 12.7325C22.3747 11.4563 23.0121 9.81816 23.0121 8.03433C23.0121 3.96905 19.7052 0.662109 15.6404 0.662109C11.5761 0.662109 8.26919 3.96905 8.26919 8.03433C8.26919 9.81816 8.90659 11.4563 9.96528 12.733C7.78048 13.8507 6.32031 16.1168 6.32031 18.7244V24.5309C6.32031 26.2369 7.70861 27.6252 9.41462 27.6252ZM47.8112 3.21815C50.4664 3.21815 52.6269 5.37817 52.6269 8.03384C52.6269 10.689 50.4664 12.8495 47.8112 12.8495C45.1556 12.8495 42.9956 10.6895 42.9956 8.03384C42.9951 5.37817 45.1556 3.21815 47.8112 3.21815ZM44.4909 14.6125C45.4896 15.1186 46.6172 15.4056 47.8107 15.4056C49.0047 15.4056 50.1323 15.1186 51.1306 14.6125C53.1166 14.9585 54.5753 16.67 54.5753 18.7239V24.5309C54.5753 24.8278 54.3339 25.0691 54.037 25.0691H41.5844C41.2881 25.0691 41.0467 24.8278 41.0467 24.5309V18.7239C41.0462 16.6704 42.5054 14.9585 44.4909 14.6125ZM31.7261 3.21815C34.3812 3.21815 36.5418 5.37817 36.5418 8.03384C36.5418 10.689 34.3812 12.8495 31.7261 12.8495C29.0704 12.8495 26.9104 10.6895 26.9104 8.03384C26.9104 5.37817 29.0704 3.21815 31.7261 3.21815ZM28.4062 14.6125C29.4045 15.1186 30.5321 15.4056 31.7261 15.4056C32.9201 15.4056 34.0472 15.1186 35.0459 14.6125C37.0315 14.9585 38.4906 16.67 38.4906 18.7239V24.5309C38.4906 24.8278 38.2493 25.0691 37.9524 25.0691H25.4998C25.2029 25.0691 24.9615 24.8278 24.9615 24.5309V18.7239C24.9615 16.6704 26.4207 14.9585 28.4062 14.6125ZM15.6409 3.21815C18.2961 3.21815 20.4566 5.37817 20.4566 8.03384C20.4566 10.689 18.2961 12.8495 15.6409 12.8495C12.9857 12.8495 10.8252 10.689 10.8252 8.03384C10.8252 5.37817 12.9857 3.21815 15.6409 3.21815ZM8.87635 18.7239C8.87635 16.6704 10.3355 14.9585 12.3211 14.6125C13.3198 15.1186 14.4469 15.4056 15.6409 15.4056C16.8349 15.4056 17.962 15.1186 18.9607 14.6125C20.9468 14.9585 22.4055 16.67 22.4055 18.7239V24.5309C22.4055 24.8278 22.1641 25.0691 21.8672 25.0691H9.41462C9.11773 25.0691 8.87635 24.8278 8.87635 24.5309V18.7239Z" fill="url(#paint3_linear_3433_178)"/>
</g>
<defs>
<linearGradient id="paint0_linear_3433_178" x1="23.6831" y1="13.9788" x2="41.5015" y2="20.2995" gradientUnits="userSpaceOnUse">
<stop stop-color="#FFD54F"/>
<stop offset="1" stop-color="#FEC100"/>
</linearGradient>
<linearGradient id="paint1_linear_3433_178" x1="0.776367" y1="46.8332" x2="62.1652" y2="46.8332" gradientUnits="userSpaceOnUse">
<stop stop-color="#9D94FF"/>
<stop offset="1" stop-color="#6B50E9"/>
</linearGradient>
<linearGradient id="paint2_linear_3433_178" x1="29.8633" y1="44.183" x2="32.2906" y2="44.183" gradientUnits="userSpaceOnUse">
<stop stop-color="#9D94FF"/>
<stop offset="1" stop-color="#6B50E9"/>
</linearGradient>
<linearGradient id="paint3_linear_3433_178" x1="6.32031" y1="14.1436" x2="54.3339" y2="14.1436" gradientUnits="userSpaceOnUse">
<stop stop-color="#9D94FF"/>
<stop offset="1" stop-color="#6B50E9"/>
</linearGradient>
<clipPath id="clip0_3433_178">
<rect width="64.9651" height="64.9651" fill="white" transform="translate(0.776367 0.154297)"/>
</clipPath>
</defs>
</svg>
