<svg width="26" height="26" viewBox="0 0 26 26" fill="none" xmlns="http://www.w3.org/2000/svg">
<g clip-path="url(#clip0_504_159)">
<path d="M21.3008 24.6201H4.69922C3.46074 24.6201 2.45312 23.6126 2.45312 22.374V10.5566C2.45312 10.1252 2.80288 9.77539 3.23438 9.77539C3.66587 9.77539 4.01562 10.1252 4.01562 10.5566V22.374C4.01562 22.751 4.32227 23.0576 4.69922 23.0576H21.3008C21.6777 23.0576 21.9844 22.751 21.9844 22.374V10.5566C21.9844 10.1252 22.3341 9.77539 22.7656 9.77539C23.1971 9.77539 23.5469 10.1252 23.5469 10.5566V22.374C23.5469 23.6125 22.5393 24.6201 21.3008 24.6201Z" fill="white"/>
<path d="M24.7187 13.2911C24.5188 13.2911 24.3189 13.2148 24.1663 13.0622L14.4501 3.34604C13.6505 2.54643 12.3495 2.54643 11.5499 3.34604L1.83368 13.0622C1.5286 13.3674 1.03392 13.3674 0.728845 13.0622C0.423718 12.7572 0.423718 12.2625 0.728845 11.9574L10.4451 2.24116C11.8538 0.832373 14.1462 0.832373 15.5549 2.24116L25.2711 11.9574C25.5763 12.2625 25.5763 12.7571 25.2711 13.0622C25.1186 13.2148 24.9187 13.2911 24.7187 13.2911Z" fill="white"/>
<path d="M16.125 24.6206H9.875C9.44351 24.6206 9.09375 24.2708 9.09375 23.8394V16.9058C9.09375 15.5596 10.189 14.4644 11.5352 14.4644H14.4648C15.811 14.4644 16.9062 15.5596 16.9062 16.9058V23.8394C16.9062 24.2708 16.5565 24.6206 16.125 24.6206ZM10.6562 23.0581H15.3438V16.9058C15.3438 16.4211 14.9495 16.0269 14.4648 16.0269H11.5352C11.0505 16.0269 10.6562 16.4211 10.6562 16.9058V23.0581Z" fill="white"/>
</g>
<defs>
<clipPath id="clip0_504_159">
<rect width="25" height="25" fill="white" transform="translate(0.5 0.402344)"/>
</clipPath>
</defs>
</svg>
