<svg width="24" height="24" viewBox="0 0 24 24" fill="none" xmlns="http://www.w3.org/2000/svg">
<path d="M11.8056 5.99111C8.48036 5.99111 5.79677 8.6747 5.79677 11.9999C5.79677 15.3251 8.48036 18.0087 11.8056 18.0087C15.1308 18.0087 17.8143 15.3251 17.8143 11.9999C17.8143 8.6747 15.1308 5.99111 11.8056 5.99111ZM11.8056 15.9052C9.65517 15.9052 7.90028 14.1503 7.90028 11.9999C7.90028 9.84951 9.65517 8.09462 11.8056 8.09462C13.9559 8.09462 15.7108 9.84951 15.7108 11.9999C15.7108 14.1503 13.9559 15.9052 11.8056 15.9052ZM18.0604 4.34462C17.2841 4.34462 16.6571 4.97158 16.6571 5.74794C16.6571 6.52431 17.2841 7.15126 18.0604 7.15126C18.8368 7.15126 19.4638 6.52724 19.4638 5.74794C19.464 5.56359 19.4279 5.381 19.3574 5.21064C19.287 5.04028 19.1836 4.88549 19.0533 4.75513C18.9229 4.62477 18.7681 4.52141 18.5977 4.45097C18.4274 4.38053 18.2448 4.34439 18.0604 4.34462ZM23.5184 11.9999C23.5184 10.3827 23.5331 8.78017 23.4423 7.16591C23.3515 5.29091 22.9237 3.62685 21.5526 2.25575C20.1786 0.881731 18.5175 0.456926 16.6425 0.366106C15.0253 0.275285 13.4227 0.289934 11.8085 0.289934C10.1913 0.289934 8.58876 0.275285 6.9745 0.366106C5.0995 0.456926 3.43544 0.88466 2.06435 2.25575C0.690324 3.62978 0.26552 5.29091 0.174699 7.16591C0.0838792 8.7831 0.0985277 10.3856 0.0985277 11.9999C0.0985277 13.6142 0.0838792 15.2196 0.174699 16.8339C0.26552 18.7089 0.693254 20.3729 2.06435 21.744C3.43837 23.1181 5.0995 23.5429 6.9745 23.6337C8.59169 23.7245 10.1942 23.7099 11.8085 23.7099C13.4257 23.7099 15.0282 23.7245 16.6425 23.6337C18.5175 23.5429 20.1815 23.1151 21.5526 21.744C22.9267 20.37 23.3515 18.7089 23.4423 16.8339C23.536 15.2196 23.5184 13.6171 23.5184 11.9999ZM20.9403 18.9081C20.7265 19.4413 20.4686 19.8397 20.0556 20.2499C19.6425 20.663 19.247 20.9208 18.7138 21.1347C17.1727 21.747 13.5136 21.6093 11.8056 21.6093C10.0975 21.6093 6.43544 21.747 4.89443 21.1376C4.36122 20.9237 3.96279 20.6659 3.55263 20.2528C3.13954 19.8397 2.88173 19.4442 2.66786 18.911C2.05849 17.3671 2.19618 13.7079 2.19618 11.9999C2.19618 10.2919 2.05849 6.62978 2.66786 5.08876C2.88173 4.55556 3.13954 4.15712 3.55263 3.74697C3.96571 3.33681 4.36122 3.07607 4.89443 2.8622C6.43544 2.25283 10.0975 2.39052 11.8056 2.39052C13.5136 2.39052 17.1757 2.25283 18.7167 2.8622C19.2499 3.07607 19.6483 3.33388 20.0585 3.74697C20.4716 4.16005 20.7294 4.55556 20.9433 5.08876C21.5526 6.62978 21.4149 10.2919 21.4149 11.9999C21.4149 13.7079 21.5526 17.3671 20.9403 18.9081Z" fill="#1E2123"/>
</svg>
