<svg width="14" height="14" viewBox="0 0 14 14" fill="none" xmlns="http://www.w3.org/2000/svg">
<g opacity="0.4">
<path d="M0.00354004 3.3985L7.00092 6.89675L13.9983 3.3985C13.9724 2.95264 13.777 2.53355 13.4521 2.22707C13.1273 1.92059 12.6975 1.74992 12.2509 1.75H1.75092C1.3043 1.74992 0.874556 1.92059 0.549696 2.22707C0.224835 2.53355 0.0294436 2.95264 0.00354004 3.3985V3.3985Z" fill="white"/>
<path d="M14 5.35352L7 8.85351L0 5.35352V10.5003C0 10.9644 0.184374 11.4095 0.512563 11.7377C0.840752 12.0659 1.28587 12.2503 1.75 12.2503H12.25C12.7141 12.2503 13.1592 12.0659 13.4874 11.7377C13.8156 11.4095 14 10.9644 14 10.5003V5.35352Z" fill="white"/>
</g>
</svg>
