<svg width="55" height="55" viewBox="0 0 55 55" fill="none" xmlns="http://www.w3.org/2000/svg">
<g clip-path="url(#clip0_3433_177)">
<rect x="26.9424" y="2.63281" width="25.4375" height="11.5" fill="#B8C4FF"/>
<path d="M49.3838 0.507812H30.2939C27.677 0.507812 25.5479 2.63696 25.5479 5.25391V11.582C25.5479 14.199 27.677 16.3281 30.2939 16.3281H38.2041V19.5977H30.2939C27.677 19.5977 25.5479 21.7264 25.5479 24.3433V30.6715C25.5479 33.2888 27.677 35.4176 30.2939 35.4176H38.2041V38.6871H30.2939C27.677 38.6871 25.5479 40.8162 25.5479 43.4332V49.7613C25.5479 52.3783 27.677 54.5074 30.2939 54.5074H49.3838C52.0007 54.5074 54.1299 52.3783 54.1299 49.7613V43.4332C54.1299 40.8162 52.0007 38.6871 49.3838 38.6871H41.3682V35.4176H49.3838C52.0007 35.4176 54.1299 33.2888 54.1299 30.6715V24.3433C54.1299 21.7264 52.0007 19.5977 49.3838 19.5977H41.3682V16.3281H49.3838C52.0007 16.3281 54.1299 14.199 54.1299 11.582V5.25391C54.1299 2.63696 52.0007 0.507812 49.3838 0.507812ZM50.9658 43.4332V49.7613C50.9658 50.6339 50.256 51.3433 49.3838 51.3433H30.2939C29.4214 51.3433 28.7119 50.6339 28.7119 49.7613V43.4332C28.7119 42.561 29.4214 41.8512 30.2939 41.8512H49.3838C50.256 41.8512 50.9658 42.561 50.9658 43.4332ZM50.9658 24.3433V30.6715C50.9658 31.5441 50.256 32.2535 49.3838 32.2535H30.2939C29.4214 32.2535 28.7119 31.5441 28.7119 30.6715V24.3433C28.7119 23.4712 29.4214 22.7617 30.2939 22.7617H49.3838C50.256 22.7617 50.9658 23.4712 50.9658 24.3433ZM50.9658 11.582C50.9658 12.4542 50.256 13.1641 49.3838 13.1641H30.2939C29.4214 13.1641 28.7119 12.4542 28.7119 11.582V5.25391C28.7119 4.38132 29.4214 3.67188 30.2939 3.67188H49.3838C50.256 3.67188 50.9658 4.38132 50.9658 5.25391V11.582Z" fill="url(#paint0_linear_3433_177)"/>
<path d="M8.14551 48.1797C9.01933 48.1797 9.72754 47.4715 9.72754 46.5977C9.72754 45.7242 9.01933 45.0156 8.14551 45.0156C5.51579 45.0156 3.29395 42.8424 3.29395 40.2695C3.29395 39.3961 2.58574 38.6875 1.71191 38.6875C0.838089 38.6875 0.129883 39.3961 0.129883 40.2695C0.129883 44.642 3.77226 48.1797 8.14551 48.1797Z" fill="#FEC100"/>
<path d="M1.71191 35.418C2.58574 35.418 3.29395 34.7098 3.29395 33.8359V27.5078C3.29395 26.6344 2.58574 25.9258 1.71191 25.9258C0.838089 25.9258 0.129883 26.6344 0.129883 27.5078V33.8359C0.129883 34.7098 0.838089 35.418 1.71191 35.418Z" fill="#FEC100"/>
<path d="M1.71191 22.7621C2.58574 22.7621 3.29395 22.0535 3.29395 21.1801V14.7465C3.29395 12.1737 5.51579 10.0004 8.14551 10.0004H15.5765L10.432 13.4298C9.70488 13.9147 9.50836 14.8969 9.99327 15.6236C10.4802 16.3545 11.4637 16.5448 12.1871 16.0624L21.6793 9.73469C22.1193 9.44094 22.3838 8.94697 22.3838 8.41798C22.3838 7.88898 22.1193 7.39501 21.6793 7.10168L12.1871 0.773551C11.4599 0.289054 10.4778 0.485572 9.99327 1.21232C9.50836 1.93948 9.70488 2.92165 10.432 3.40615L15.5765 6.83594H8.14551C3.77309 6.83594 0.129883 10.3729 0.129883 14.7461L0.129883 21.1797C0.129883 22.0535 0.838089 22.7621 1.71191 22.7621Z" fill="#FEC100"/>
<path d="M14.4736 45.0156C13.5998 45.0156 12.8916 45.7242 12.8916 46.5977C12.8916 47.4715 13.5998 48.1797 14.4736 48.1797H20.8018C21.6756 48.1797 22.3838 47.4715 22.3838 46.5977C22.3838 45.7242 21.6756 45.0156 20.8018 45.0156H14.4736Z" fill="#FEC100"/>
<path d="M46.2197 6.83594H33.458C32.5842 6.83594 31.876 7.54414 31.876 8.41797C31.876 9.29138 32.5842 10 33.458 10H46.2197C47.0931 10 47.8018 9.29138 47.8018 8.41797C47.8018 7.54414 47.0931 6.83594 46.2197 6.83594Z" fill="url(#paint1_linear_3433_177)"/>
<path d="M31.876 27.5078C31.876 28.3816 32.5842 29.0898 33.458 29.0898H46.2197C47.0931 29.0898 47.8018 28.3816 47.8018 27.5078C47.8018 26.6344 47.0931 25.9258 46.2197 25.9258H33.458C32.5842 25.9258 31.876 26.6344 31.876 27.5078Z" fill="url(#paint2_linear_3433_177)"/>
<path d="M31.876 46.5977C31.876 47.4715 32.5842 48.1797 33.458 48.1797H46.2197C47.0931 48.1797 47.8018 47.4715 47.8018 46.5977C47.8018 45.7242 47.0931 45.0156 46.2197 45.0156H33.458C32.5842 45.0156 31.876 45.7238 31.876 46.5977Z" fill="url(#paint3_linear_3433_177)"/>
</g>
<defs>
<linearGradient id="paint0_linear_3433_177" x1="25.5479" y1="27.5076" x2="52.5566" y2="27.5076" gradientUnits="userSpaceOnUse">
<stop stop-color="#9D94FF"/>
<stop offset="1" stop-color="#6B50E9"/>
</linearGradient>
<linearGradient id="paint1_linear_3433_177" x1="31.876" y1="8.41797" x2="46.9251" y2="8.41797" gradientUnits="userSpaceOnUse">
<stop stop-color="#9D94FF"/>
<stop offset="1" stop-color="#6B50E9"/>
</linearGradient>
<linearGradient id="paint2_linear_3433_177" x1="31.876" y1="27.5078" x2="46.9251" y2="27.5078" gradientUnits="userSpaceOnUse">
<stop stop-color="#9D94FF"/>
<stop offset="1" stop-color="#6B50E9"/>
</linearGradient>
<linearGradient id="paint3_linear_3433_177" x1="31.876" y1="46.5977" x2="46.9251" y2="46.5977" gradientUnits="userSpaceOnUse">
<stop stop-color="#9D94FF"/>
<stop offset="1" stop-color="#6B50E9"/>
</linearGradient>
<clipPath id="clip0_3433_177">
<rect width="54" height="54" fill="white" transform="translate(0.129883 0.507812)"/>
</clipPath>
</defs>
</svg>
