<svg display="none" xmlns="http://www.w3.org/2000/svg">
<symbol id="heart" viewBox="0 0 512 512" >
   <svg xmlns="http://www.w3.org/2000/svg">
      <path d="M244 84L255.1 96L267.1 84.02C300.6 51.37 347 36.51 392.6 44.1C461.5 55.58 512 115.2 512 185.1V190.9C512 232.4 494.8 272.1 464.4 300.4L283.7 469.1C276.2 476.1 266.3 480 256 480C245.7 480 235.8 476.1 228.3 469.1L47.59 300.4C17.23 272.1 0 232.4 0 190.9V185.1C0 115.2 50.52 55.58 119.4 44.1C164.1 36.51 211.4 51.37 244 84C243.1 84 244 84.01 244 84L244 84zM255.1 163.9L210.1 117.1C188.4 96.28 157.6 86.4 127.3 91.44C81.55 99.07 48 138.7 48 185.1V190.9C48 219.1 59.71 246.1 80.34 265.3L256 429.3L431.7 265.3C452.3 246.1 464 219.1 464 190.9V185.1C464 138.7 430.4 99.07 384.7 91.44C354.4 86.4 323.6 96.28 301.9 117.1L255.1 163.9z" stroke="currentColor"/>
   </svg>
</symbol>
<symbol id="mark" viewBox="0 0 9 10">
   <path d="M7.43757 1.74419C6.70501 0.627907 5.49571 0 4.13525 0C2.78641 0 1.57711 0.627907 0.821293 1.74419C0.0654788 2.83721 -0.10894 4.23256 0.356176 5.45349C0.484083 5.77907 0.681758 6.11628 0.937572 6.4186L3.87943 9.88372C3.9492 9.95349 4.01897 10 4.12362 10C4.22827 10 4.29804 9.95349 4.3678 9.88372L7.32129 6.4186C7.57711 6.11628 7.78641 5.7907 7.90269 5.45349C8.3678 4.23256 8.19339 2.83721 7.43757 1.74419ZM4.13525 5.86047C3.13525 5.86047 2.30966 5.03488 2.30966 4.03488C2.30966 3.03488 3.13525 2.2093 4.13525 2.2093C5.13525 2.2093 5.96083 3.03488 5.96083 4.03488C5.96083 5.03488 5.14687 5.86047 4.13525 5.86047Z" />
</symbol>
<symbol id="arrow"  viewBox="0 0 27 27">
   <svg width="27" height="27" viewBox="0 0 27 27" fill="none" xmlns="http://www.w3.org/2000/svg">
   <path d="M10 20.2852L16.5714 13.7137L10 7.1423" stroke="white" stroke-width="2" stroke-linecap="round" stroke-linejoin="round"/>
   </svg>
</symbol>
<symbol id="user" viewBox="0 0 16 16">
   <g clip-path="url(#clip0_2831_1903)">
      <path d="M8.001 0.792969C5.85814 0.792969 4.10645 2.54466 4.10645 4.68753C4.10645 6.8304 5.85814 8.5821 8.001 8.5821C10.1439 8.5821 11.8956 6.8304 11.8956 4.68753C11.8956 2.54466 10.1439 0.792969 8.001 0.792969Z" fill="#686868"/>
      <path d="M14.6852 11.695C14.5832 11.4399 14.4471 11.2018 14.2941 10.9807C13.5118 9.8242 12.3043 9.0589 10.9438 8.87182C10.7737 8.85483 10.5866 8.88882 10.4506 8.99087C9.73627 9.51808 8.88595 9.79019 8.00157 9.79019C7.1172 9.79019 6.26687 9.51808 5.55258 8.99087C5.41651 8.88882 5.22944 8.83781 5.05938 8.87182C3.69884 9.0589 2.47436 9.8242 1.70906 10.9807C1.556 11.2018 1.41993 11.4569 1.31791 11.695C1.2669 11.797 1.2839 11.9161 1.3349 12.0181C1.47097 12.2562 1.64102 12.4943 1.79408 12.6984C2.03217 13.0215 2.28728 13.3106 2.57641 13.5827C2.81449 13.8208 3.0866 14.0419 3.35873 14.263C4.70225 15.2664 6.31791 15.7936 7.98458 15.7936C9.65125 15.7936 11.2669 15.2664 12.6104 14.263C12.8825 14.0589 13.1546 13.8208 13.3927 13.5827C13.6649 13.3106 13.937 13.0215 14.1751 12.6984C14.3451 12.4773 14.4982 12.2562 14.6343 12.0181C14.7192 11.9161 14.7362 11.797 14.6852 11.695Z" fill="#686868"/>
   </g>
 </symbol>
<symbol id="metro" viewBox="0 0 20 22">
   <svg width="20" height="22" viewBox="0 0 20 22"  xmlns="http://www.w3.org/2000/svg">
   <path d="M19.6401 15.4773H18.3812L14.4755 4.50977L9.99979 11.1994L5.21594 4.58926L1.61882 15.4773H0.359905L0 16.9373H4.77911L6.65514 11.5998L10.0565 16.2942L10.0769 16.3238L10.0978 16.2942L13.3449 11.5998L15.2209 16.9373H20L19.6401 15.4773Z" />
   </svg>
</symbol>

<symbol id="dot" viewBox="0 0 6 7">
   <path d="M5 3.20732C5 4.51647 3.97725 5.54941 2.75 5.54941C1.52275 5.54941 0.5 4.51647 0.5 3.20732C0.5 1.89817 1.52275 0.865234 2.75 0.865234C3.97725 0.865234 5 1.89817 5 3.20732Z" />
</symbol>

<symbol id="phone" viewBox="0 0 16 15" className="phone">
   <svg width="15" height="15" viewBox="0 0 16 15" fill="none" xmlns="http://www.w3.org/2000/svg">
      <path d="M10.7275 0L5.2729 0C4.33199 0 3.56836 0.763626 3.56836 1.70454V13.2955C3.56836 14.2364 4.33199 15 5.2729 15H10.7275C11.6684 15 12.432 14.2364 12.432 13.2955V1.70454C12.432 0.763626 11.6684 0 10.7275 0ZM8.00019 14.3182C7.43427 14.3182 6.97746 13.8614 6.97746 13.2955C6.97746 12.7295 7.43427 12.2727 8.00019 12.2727C8.56611 12.2727 9.02292 12.7295 9.02292 13.2955C9.02292 13.8614 8.56608 14.3182 8.00019 14.3182ZM11.0684 11.5909H4.93201V2.04546H11.0684V11.5909Z" fill="#664EF9"/>
   </svg>
</symbol>

<symbol id="home-run" viewBox="0 0 12 12">
      <svg width="12" height="12" viewBox="0 0 12 12" fill="none" xmlns="http://www.w3.org/2000/svg">
      <g clip-path="url(#clip0_305_2083)">
      <path d="M11.7985 5.36427L6.41446 0.458394C6.17814 0.243027 5.82177 0.243051 5.58554 0.458371L0.201516 5.3643C0.0122119 5.5368 -0.0503192 5.80258 0.042165 6.04138C0.134673 6.28019 0.359907 6.43448 0.616008 6.43448H1.47593V11.3498C1.47593 11.5447 1.63394 11.7027 1.82883 11.7027H4.77993C4.97481 11.7027 5.13283 11.5447 5.13283 11.3498V8.36537H6.86724V11.3498C6.86724 11.5447 7.02526 11.7027 7.22014 11.7027H10.1711C10.366 11.7027 10.524 11.5447 10.524 11.3498V6.43448H11.3841C11.6402 6.43448 11.8654 6.28016 11.9579 6.04138C12.0503 5.80256 11.9878 5.5368 11.7985 5.36427Z" fill="#664EF9"/>
      <path d="M10.4317 1.00195H8.06177L10.7846 3.47779V1.35483C10.7846 1.15995 10.6266 1.00195 10.4317 1.00195Z" fill="#664EF9"/>
      </g>
      <defs>
      <clipPath id="clip0_305_2083">
      <rect width="12" height="12" fill="white"/>
      </clipPath>
      </defs>
      </svg>
</symbol>
<symbol id="search" viewBox="0 0 18 18">
      <svg width="18" height="18" viewBox="0 0 18 18" fill="none" xmlns="http://www.w3.org/2000/svg">
      <path d="M16.8676 15.2581L13.5441 11.9344C13.3941 11.7844 13.1907 11.7011 12.9774 11.7011H12.434C13.3541 10.5243 13.9008 9.04417 13.9008 7.43401C13.9008 3.60364 10.7973 0.5 6.96711 0.5C3.13693 0.5 0.0334473 3.60364 0.0334473 7.43401C0.0334473 11.2644 3.13693 14.368 6.96711 14.368C8.57718 14.368 10.0573 13.8213 11.234 12.9012V13.4446C11.234 13.658 11.3173 13.8613 11.4673 14.0113L14.7908 17.335C15.1042 17.6483 15.6108 17.6483 15.9209 17.335L16.8642 16.3916C17.1776 16.0782 17.1776 15.5715 16.8676 15.2581ZM6.96711 11.7011C4.61033 11.7011 2.70024 9.79424 2.70024 7.43401C2.70024 5.07711 4.607 3.16693 6.96711 3.16693C9.32388 3.16693 11.234 5.07378 11.234 7.43401C11.234 9.79091 9.32722 11.7011 6.96711 11.7011Z" fill="white"/>
      </svg>
</symbol>
</svg>