<svg display="none" xmlns="http://www.w3.org/2000/svg">
<symbol id="heart" viewBox="0 0 512 512" >
<svg xmlns="http://www.w3.org/2000/svg">
<path d="M244 84L255.1 96L267.1 84.02C300.6 51.37 347 36.51 392.6 44.1C461.5 55.58 512 115.2 512 185.1V190.9C512 232.4 494.8 272.1 464.4 300.4L283.7 469.1C276.2 476.1 266.3 480 256 480C245.7 480 235.8 476.1 228.3 469.1L47.59 300.4C17.23 272.1 0 232.4 0 190.9V185.1C0 115.2 50.52 55.58 119.4 44.1C164.1 36.51 211.4 51.37 244 84C243.1 84 244 84.01 244 84L244 84zM255.1 163.9L210.1 117.1C188.4 96.28 157.6 86.4 127.3 91.44C81.55 99.07 48 138.7 48 185.1V190.9C48 219.1 59.71 246.1 80.34 265.3L256 429.3L431.7 265.3C452.3 246.1 464 219.1 464 190.9V185.1C464 138.7 430.4 99.07 384.7 91.44C354.4 86.4 323.6 96.28 301.9 117.1L255.1 163.9z"/>
</svg>
</symbol>
<symbol id="heartActive" viewBox="0 0 512 512">
<svg xmlns="http://www.w3.org/2000/svg" viewBox="0 0 512 512" fill="#EB5757"><path d="M0 190.9V185.1C0 115.2 50.52 55.58 119.4 44.1C164.1 36.51 211.4 51.37 244 84.02L256 96L267.1 84.02C300.6 51.37 347 36.51 392.6 44.1C461.5 55.58 512 115.2 512 185.1V190.9C512 232.4 494.8 272.1 464.4 300.4L283.7 469.1C276.2 476.1 266.3 480 256 480C245.7 480 235.8 476.1 228.3 469.1L47.59 300.4C17.23 272.1 .0003 232.4 .0003 190.9L0 190.9z" /></svg>
</symbol>
<symbol id="options" viewBox="0 0 19 18">
<svg width="19" height="18" viewBox="0 0 19 18" fill="none" xmlns="http://www.w3.org/2000/svg">
<g clip-path="url(#clip0_2831_2287)">
<path d="M6.91109 4.29814C6.91109 2.90551 5.937 1.73697 4.63453 1.4358V0.661897C4.63453 0.296309 4.33822 0 3.97264 0C3.60705 0 3.31074 0.296309 3.31074 0.661897V1.4358C2.00835 1.73689 1.03418 2.90551 1.03418 4.29814C1.03418 5.69077 2.00827 6.85931 3.31074 7.16048V17.3381C3.31074 17.7037 3.60705 18 3.97264 18C4.33822 18 4.63453 17.7037 4.63453 17.3381V7.16048C5.937 6.85931 6.91109 5.69077 6.91109 4.29814ZM2.35805 4.29814C2.35805 3.40781 3.08238 2.68348 3.97271 2.68348C4.86303 2.68348 5.58737 3.40781 5.58737 4.29814C5.58737 5.18846 4.86303 5.9128 3.97271 5.9128C3.08238 5.9128 2.35805 5.18846 2.35805 4.29814Z" fill="#664EF9"/>
<path d="M9.66188 8.89222V0.661897C9.66188 0.296309 9.36557 0 8.99998 0C8.63439 0 8.33808 0.296309 8.33808 0.661897V8.89222C7.03569 9.19331 6.06152 10.3619 6.06152 11.7546C6.06152 13.1472 7.03562 14.3157 8.33808 14.6169V17.3381C8.33808 17.7037 8.63439 18 8.99998 18C9.36557 18 9.66188 17.7037 9.66188 17.3381V14.6169C10.9643 14.3158 11.9384 13.1472 11.9384 11.7546C11.9384 10.3619 10.9643 9.19338 9.66188 8.89222ZM7.38539 11.7546C7.38539 10.8642 8.10973 10.1399 9.00005 10.1399C9.89038 10.1399 10.6147 10.8642 10.6147 11.7546C10.6147 12.6449 9.89038 13.3692 9.00005 13.3692C8.10973 13.3692 7.38539 12.6449 7.38539 11.7546Z" fill="#664EF9"/>
<path d="M16.9658 7.20151C16.9658 5.80888 15.9917 4.64034 14.6892 4.33918V0.661897C14.6892 0.296309 14.3929 0 14.0273 0C13.6617 0 13.3654 0.296309 13.3654 0.661897V4.33918C12.063 4.64027 11.0889 5.80888 11.0889 7.20151C11.0889 8.59415 12.063 9.76269 13.3654 10.0639V17.3381C13.3654 17.7037 13.6617 18 14.0273 18C14.3929 18 14.6892 17.7037 14.6892 17.3381V10.0639C15.9917 9.76269 16.9658 8.59415 16.9658 7.20151ZM12.4127 7.20151C12.4127 6.31119 13.1371 5.58685 14.0274 5.58685C14.9177 5.58685 15.6421 6.31119 15.6421 7.20151C15.6421 8.09184 14.9177 8.81618 14.0274 8.81618C13.1371 8.81618 12.4127 8.09184 12.4127 7.20151Z" fill="#664EF9"/>
</g>
<defs>
<clipPath id="clip0_2831_2287">
<rect width="18" height="18" fill="white" transform="translate(0.5)"/>
</clipPath>
</defs>
</svg>
</symbol>
<symbol id="mark" viewBox="0 0 9 10">
<path d="M7.43757 1.74419C6.70501 0.627907 5.49571 0 4.13525 0C2.78641 0 1.57711 0.627907 0.821293 1.74419C0.0654788 2.83721 -0.10894 4.23256 0.356176 5.45349C0.484083 5.77907 0.681758 6.11628 0.937572 6.4186L3.87943 9.88372C3.9492 9.95349 4.01897 10 4.12362 10C4.22827 10 4.29804 9.95349 4.3678 9.88372L7.32129 6.4186C7.57711 6.11628 7.78641 5.7907 7.90269 5.45349C8.3678 4.23256 8.19339 2.83721 7.43757 1.74419ZM4.13525 5.86047C3.13525 5.86047 2.30966 5.03488 2.30966 4.03488C2.30966 3.03488 3.13525 2.2093 4.13525 2.2093C5.13525 2.2093 5.96083 3.03488 5.96083 4.03488C5.96083 5.03488 5.14687 5.86047 4.13525 5.86047Z" />
</symbol>
<symbol id="arrow"  viewBox="0 0 27 27">
<svg width="27" height="27" viewBox="0 0 27 27" fill="none" xmlns="http://www.w3.org/2000/svg">
<path d="M10 20.2852L16.5714 13.7137L10 7.1423" stroke="white" stroke-width="2" stroke-linecap="round" stroke-linejoin="round"/>
</svg>
</symbol>
<symbol id="user" viewBox="0 0 16 16">
<g clip-path="url(#clip0_2831_1903)">
<path d="M8.001 0.792969C5.85814 0.792969 4.10645 2.54466 4.10645 4.68753C4.10645 6.8304 5.85814 8.5821 8.001 8.5821C10.1439 8.5821 11.8956 6.8304 11.8956 4.68753C11.8956 2.54466 10.1439 0.792969 8.001 0.792969Z" />
<path d="M14.6852 11.695C14.5832 11.4399 14.4471 11.2018 14.2941 10.9807C13.5118 9.8242 12.3043 9.0589 10.9438 8.87182C10.7737 8.85483 10.5866 8.88882 10.4506 8.99087C9.73627 9.51808 8.88595 9.79019 8.00157 9.79019C7.1172 9.79019 6.26687 9.51808 5.55258 8.99087C5.41651 8.88882 5.22944 8.83781 5.05938 8.87182C3.69884 9.0589 2.47436 9.8242 1.70906 10.9807C1.556 11.2018 1.41993 11.4569 1.31791 11.695C1.2669 11.797 1.2839 11.9161 1.3349 12.0181C1.47097 12.2562 1.64102 12.4943 1.79408 12.6984C2.03217 13.0215 2.28728 13.3106 2.57641 13.5827C2.81449 13.8208 3.0866 14.0419 3.35873 14.263C4.70225 15.2664 6.31791 15.7936 7.98458 15.7936C9.65125 15.7936 11.2669 15.2664 12.6104 14.263C12.8825 14.0589 13.1546 13.8208 13.3927 13.5827C13.6649 13.3106 13.937 13.0215 14.1751 12.6984C14.3451 12.4773 14.4982 12.2562 14.6343 12.0181C14.7192 11.9161 14.7362 11.797 14.6852 11.695Z" />
</g>
 </symbol>
<symbol id="metro" viewBox="0 0 20 22">
<svg width="20" height="22" viewBox="0 0 20 22"  xmlns="http://www.w3.org/2000/svg">
<path d="M19.6401 15.4773H18.3812L14.4755 4.50977L9.99979 11.1994L5.21594 4.58926L1.61882 15.4773H0.359905L0 16.9373H4.77911L6.65514 11.5998L10.0565 16.2942L10.0769 16.3238L10.0978 16.2942L13.3449 11.5998L15.2209 16.9373H20L19.6401 15.4773Z"  />
</svg>
</symbol>

<symbol id="dot" viewBox="0 0 6 7">
<path d="M5 3.20732C5 4.51647 3.97725 5.54941 2.75 5.54941C1.52275 5.54941 0.5 4.51647 0.5 3.20732C0.5 1.89817 1.52275 0.865234 2.75 0.865234C3.97725 0.865234 5 1.89817 5 3.20732Z" />
</symbol>

<symbol id="phone" viewBox="0 0 16 15">
<svg width="15" height="15" xmlns="http://www.w3.org/2000/svg">
<path d="M10.7275 0L5.2729 0C4.33199 0 3.56836 0.763626 3.56836 1.70454V13.2955C3.56836 14.2364 4.33199 15 5.2729 15H10.7275C11.6684 15 12.432 14.2364 12.432 13.2955V1.70454C12.432 0.763626 11.6684 0 10.7275 0ZM8.00019 14.3182C7.43427 14.3182 6.97746 13.8614 6.97746 13.2955C6.97746 12.7295 7.43427 12.2727 8.00019 12.2727C8.56611 12.2727 9.02292 12.7295 9.02292 13.2955C9.02292 13.8614 8.56608 14.3182 8.00019 14.3182ZM11.0684 11.5909H4.93201V2.04546H11.0684V11.5909Z" />
</svg>
</symbol>

<symbol id="home-run" viewBox="0 0 12 12">
<svg width="12" height="12" viewBox="0 0 12 12"  xmlns="http://www.w3.org/2000/svg">
<g clip-path="url(#clip0_305_2083)">
<path d="M11.7985 5.36427L6.41446 0.458394C6.17814 0.243027 5.82177 0.243051 5.58554 0.458371L0.201516 5.3643C0.0122119 5.5368 -0.0503192 5.80258 0.042165 6.04138C0.134673 6.28019 0.359907 6.43448 0.616008 6.43448H1.47593V11.3498C1.47593 11.5447 1.63394 11.7027 1.82883 11.7027H4.77993C4.97481 11.7027 5.13283 11.5447 5.13283 11.3498V8.36537H6.86724V11.3498C6.86724 11.5447 7.02526 11.7027 7.22014 11.7027H10.1711C10.366 11.7027 10.524 11.5447 10.524 11.3498V6.43448H11.3841C11.6402 6.43448 11.8654 6.28016 11.9579 6.04138C12.0503 5.80256 11.9878 5.5368 11.7985 5.36427Z"  />
<path d="M10.4317 1.00195H8.06177L10.7846 3.47779V1.35483C10.7846 1.15995 10.6266 1.00195 10.4317 1.00195Z" />
</g>
<defs>
<clipPath id="clip0_305_2083">
<rect width="12" height="12" fill="white"/>
</clipPath>
</defs>
</svg>
</symbol>
<symbol id="search" viewBox="0 0 18 18">
<svg width="18" height="18" viewBox="0 0 18 18" fill="none" xmlns="http://www.w3.org/2000/svg">
<path d="M16.8676 15.2581L13.5441 11.9344C13.3941 11.7844 13.1907 11.7011 12.9774 11.7011H12.434C13.3541 10.5243 13.9008 9.04417 13.9008 7.43401C13.9008 3.60364 10.7973 0.5 6.96711 0.5C3.13693 0.5 0.0334473 3.60364 0.0334473 7.43401C0.0334473 11.2644 3.13693 14.368 6.96711 14.368C8.57718 14.368 10.0573 13.8213 11.234 12.9012V13.4446C11.234 13.658 11.3173 13.8613 11.4673 14.0113L14.7908 17.335C15.1042 17.6483 15.6108 17.6483 15.9209 17.335L16.8642 16.3916C17.1776 16.0782 17.1776 15.5715 16.8676 15.2581ZM6.96711 11.7011C4.61033 11.7011 2.70024 9.79424 2.70024 7.43401C2.70024 5.07711 4.607 3.16693 6.96711 3.16693C9.32388 3.16693 11.234 5.07378 11.234 7.43401C11.234 9.79091 9.32722 11.7011 6.96711 11.7011Z" fill="white"/>
</svg>
</symbol>

<symbol id="vk" viewBox="0 0 18 11">
<svg width="18" height="11" viewBox="0 0 18 11"  xmlns="http://www.w3.org/2000/svg">
<path d="M14.7034 6.23046C14.4274 5.88189 14.5064 5.72681 14.7034 5.41522C14.707 5.41167 16.9855 2.26311 17.2203 1.19534L17.2217 1.19463C17.3384 0.805504 17.2217 0.519531 16.6576 0.519531H14.7909C14.3157 0.519531 14.0966 0.764956 13.9793 1.03955C13.9793 1.03955 13.0289 3.31453 11.6844 4.78921C11.2504 5.21533 11.0498 5.35191 10.8129 5.35191C10.6963 5.35191 10.5149 5.21533 10.5149 4.8262V1.19463C10.5149 0.727964 10.3818 0.519531 9.98843 0.519531H7.0533C6.75523 0.519531 6.5781 0.737212 6.5781 0.939955C6.5781 1.38243 7.25035 1.48416 7.32006 2.72907V5.43016C7.32006 6.02203 7.21264 6.13087 6.97433 6.13087C6.33979 6.13087 4.79966 3.84664 3.88696 1.23233C3.70271 0.725119 3.52274 0.520243 3.04398 0.520243H1.17662C0.643795 0.520243 0.536377 0.765667 0.536377 1.04026C0.536377 1.52542 1.17092 3.93769 3.48717 7.12466C5.03085 9.30005 7.20482 10.4788 9.18245 10.4788C10.3712 10.4788 10.5163 10.217 10.5163 9.76671C10.5163 7.68807 10.4089 7.49173 11.0043 7.49173C11.2803 7.49173 11.7555 7.62832 12.8652 8.6776C14.1336 9.92179 14.3421 10.4788 15.052 10.4788H16.9187C17.4508 10.4788 17.7204 10.217 17.5653 9.70055C17.2103 8.61428 14.8116 6.37985 14.7034 6.23046Z" />
</svg>
</symbol>
<symbol id="fb" viewBox="0 0 10 19">
<svg width="11" height="20" viewBox="0 0 10 19"  xmlns="http://www.w3.org/2000/svg">
<path d="M7.88394 3.79773H9.44256V1.08311C9.17366 1.04612 8.24887 0.962891 7.17185 0.962891C4.92461 0.962891 3.38519 2.3764 3.38519 4.97434V7.36528H0.905334V10.4H3.38519V18.0359H6.42561V10.4007H8.80517L9.18291 7.36599H6.4249V5.27525C6.42562 4.39813 6.66179 3.79773 7.88394 3.79773Z" />
</svg>
</symbol>
<symbol id="facebook" viewBox="0 0 21 21" >
<svg width="21" height="21"  xmlns="http://www.w3.org/2000/svg">
<path d="M10.8047 0.75C5.28266 0.75 0.805664 5.227 0.805664 10.749C0.805664 15.739 4.46166 19.875 9.24266 20.628V13.64H6.70266V10.749H9.24266V8.546C9.24266 6.038 10.7357 4.655 13.0187 4.655C14.1127 4.655 15.2587 4.85 15.2587 4.85V7.309H13.9947C12.7547 7.309 12.3667 8.081 12.3667 8.872V10.747H15.1377L14.6947 13.638H12.3667V20.626C17.1477 19.877 20.8037 15.74 20.8037 10.749C20.8037 5.227 16.3267 0.75 10.8047 0.75Z" />
</svg>

</symbol>
<symbol id="viber" viewBox="0 0 18 18">
<svg width="18" height="18" viewBox="0 0 18 18" xmlns="http://www.w3.org/2000/svg">
<path d="M8.76711 0.477981C7.36991 0.496852 4.36357 0.726211 2.68185 2.26712C1.43344 3.50827 0.997224 5.33806 0.946417 7.60407C0.902868 9.86136 0.852061 14.1001 4.93842 15.2549V17.0114C4.93842 17.0114 4.91084 17.7154 5.37536 17.8606C5.94876 18.0421 6.27538 17.4984 6.81974 16.9178L7.83589 15.771C10.6303 16.0032 12.7715 15.4669 13.0182 15.387C13.5844 15.2056 16.7787 14.7984 17.3013 10.5589C17.8384 6.18146 17.04 3.42335 15.6029 2.17495L15.5956 2.17349C15.1601 1.77429 13.4182 0.504111 9.52051 0.489594C9.52051 0.489594 9.23309 0.471449 8.76711 0.477981ZM8.81574 1.7097C9.21131 1.70752 9.45446 1.72421 9.45446 1.72421C12.7497 1.73147 14.3254 2.72584 14.6956 3.05972C15.9077 4.09691 16.5305 6.58429 16.0747 10.2395C15.6392 13.7815 13.048 14.0065 12.5689 14.1589C12.3657 14.2243 10.4786 14.6888 8.10371 14.5364C8.10371 14.5364 6.33344 16.671 5.78182 17.2226C5.69472 17.317 5.59311 17.346 5.52778 17.3315C5.43343 17.3097 5.40439 17.1936 5.41165 17.0339L5.42617 14.1168C1.96329 13.1588 2.16652 9.54273 2.20281 7.6556C2.24636 5.76847 2.60201 4.22103 3.65445 3.17585C5.07487 1.89115 7.6283 1.71695 8.81502 1.7097H8.81574ZM9.07704 3.59682C9.04848 3.59673 9.02018 3.60227 8.99376 3.61313C8.96735 3.624 8.94334 3.63997 8.92311 3.66013C8.90288 3.68029 8.88683 3.70425 8.87588 3.73063C8.86493 3.757 8.85929 3.78528 8.85929 3.81384C8.85929 3.87159 8.88223 3.92698 8.92307 3.96781C8.9639 4.00865 9.01929 4.03159 9.07704 4.03159C9.61664 4.02129 10.1529 4.11798 10.655 4.31605C11.157 4.51413 11.6149 4.80968 12.0021 5.18564C12.7932 5.95501 13.1786 6.98567 13.1932 8.33569C13.1932 8.36429 13.1988 8.3926 13.2097 8.41902C13.2207 8.44544 13.2367 8.46944 13.2569 8.48966C13.2771 8.50988 13.3012 8.52592 13.3276 8.53686C13.354 8.54781 13.3823 8.55344 13.4109 8.55344V8.54691C13.4686 8.54691 13.524 8.52397 13.5649 8.48313C13.6057 8.4423 13.6286 8.38691 13.6286 8.32916C13.6556 7.69428 13.553 7.06056 13.3271 6.46659C13.1013 5.87263 12.7569 5.33086 12.3149 4.87426C11.4512 4.03232 10.361 3.59682 9.07631 3.59682H9.07704ZM6.20715 4.09764C6.0528 4.07564 5.89553 4.10633 5.76077 4.18474H5.75206C5.45448 4.35893 5.18012 4.57668 4.91882 4.86701C4.72285 5.09927 4.61325 5.3308 4.58422 5.55581C4.56714 5.68777 4.57954 5.82188 4.62051 5.94848L4.63503 5.95573C4.85874 6.61343 5.15066 7.24592 5.50601 7.84286C5.96662 8.67888 6.53254 9.45237 7.18991 10.1444L7.21168 10.1735L7.24072 10.1952L7.26249 10.217L7.28426 10.2388C7.97904 10.8978 8.75459 11.4661 9.59237 11.9299C10.5504 12.4525 11.1326 12.6993 11.4809 12.8009V12.8082C11.5826 12.8372 11.6755 12.8517 11.7698 12.8517C12.0672 12.83 12.3488 12.7094 12.5697 12.5091C12.8527 12.2551 13.0777 11.9735 13.2447 11.6759V11.6687C13.4116 11.3566 13.3536 11.0582 13.114 10.855C12.6313 10.4327 12.1087 10.0584 11.5535 9.73725C11.1834 9.53402 10.8059 9.65741 10.6535 9.86064L10.3269 10.2736C10.16 10.4769 9.85511 10.4478 9.85511 10.4478L9.8464 10.4551C7.58185 9.87443 6.97942 7.58157 6.97942 7.58157C6.97942 7.58157 6.95039 7.26947 7.16088 7.10979L7.56733 6.78317C7.7633 6.62349 7.90121 6.24606 7.69072 5.87589C7.37002 5.32045 6.99564 4.79778 6.57296 4.31538C6.48102 4.20135 6.35122 4.12409 6.20715 4.09764ZM9.45374 4.74362C9.39599 4.74381 9.34068 4.76694 9.29998 4.80791C9.25928 4.84888 9.23652 4.90434 9.23672 4.96209C9.23691 5.01984 9.26004 5.07515 9.30101 5.11585C9.34198 5.15654 9.39744 5.1793 9.45519 5.17911C10.1816 5.19172 10.8733 5.49189 11.3786 6.0138C11.6066 6.26531 11.7819 6.55996 11.8941 6.88034C12.0063 7.20073 12.0531 7.54036 12.0318 7.87915C12.032 7.93678 12.0551 7.99198 12.0959 8.03265C12.1367 8.07333 12.192 8.09617 12.2496 8.09617L12.2568 8.10488C12.2855 8.10488 12.3139 8.09923 12.3403 8.08824C12.3668 8.07725 12.3908 8.06115 12.4111 8.04085C12.4313 8.02055 12.4473 7.99646 12.4582 7.96996C12.4691 7.94346 12.4747 7.91507 12.4746 7.88641C12.4964 7.02269 12.2278 6.29687 11.698 5.71621C11.1681 5.13556 10.4278 4.80894 9.48422 4.74362C9.47407 4.74291 9.46389 4.74291 9.45374 4.74362ZM9.80939 5.91872C9.78027 5.91786 9.75127 5.92275 9.72404 5.9331C9.6968 5.94345 9.67188 5.95906 9.65068 5.97904C9.62949 5.99903 9.61243 6.02299 9.6005 6.04956C9.58856 6.07614 9.58197 6.1048 9.58112 6.13392C9.58026 6.16304 9.58515 6.19204 9.5955 6.21928C9.60585 6.24651 9.62146 6.27143 9.64144 6.29263C9.66143 6.31382 9.68539 6.33088 9.71196 6.34281C9.73854 6.35475 9.7672 6.36133 9.79632 6.36219C10.5149 6.39848 10.8633 6.76139 10.9068 7.50899C10.9087 7.56547 10.9325 7.61901 10.9731 7.65828C11.0137 7.69756 11.0681 7.7195 11.1246 7.71947H11.1318C11.1611 7.71856 11.1898 7.71177 11.2164 7.6995C11.2429 7.68723 11.2668 7.66973 11.2864 7.64805C11.3061 7.62637 11.3211 7.60096 11.3307 7.57332C11.3403 7.54569 11.3443 7.5164 11.3423 7.48721C11.2915 6.51461 10.7617 5.96953 9.8181 5.91872C9.81519 5.91866 9.81229 5.91866 9.80939 5.91872Z" />
</svg>
</symbol>
<symbol id="telegram" viewBox="0 0 18 15">
<svg width="18" height="15" viewBox="0 0 18 15"  xmlns="http://www.w3.org/2000/svg">
<path d="M16.2089 0.997407L1.56595 6.644C0.566623 7.04538 0.572405 7.60286 1.3826 7.85145L5.14204 9.02421L13.8403 3.53619C14.2516 3.28594 14.6274 3.42056 14.3185 3.69476L7.27118 10.0549H7.26953L7.27118 10.0557L7.01185 13.9308C7.39176 13.9308 7.55941 13.7565 7.77249 13.5509L9.59853 11.7752L13.3968 14.5808C14.0971 14.9665 14.6001 14.7683 14.7744 13.9325L17.2677 2.18173C17.5229 1.15846 16.8771 0.695132 16.2089 0.997407Z" />
</svg>
</symbol>

<symbol id="whatsapp" viewBox="0 0 18 18">
<svg width="18" height="18" viewBox="0 0 18 18"  xmlns="http://www.w3.org/2000/svg">
<path d="M15.1558 2.87929C14.3846 2.10244 13.4667 1.48655 12.4555 1.06738C11.4442 0.64821 10.3598 0.43412 9.26514 0.43754C4.67675 0.43754 0.942178 4.17211 0.942178 8.76365C0.942178 10.2308 1.32656 11.6654 2.05436 12.9257L0.872864 17.241L5.28692 16.0826C6.50723 16.7473 7.87449 17.0961 9.26409 17.0971H9.26724C13.8556 17.0971 17.5934 13.3625 17.5934 8.771C17.5961 7.67672 17.3821 6.59273 16.9635 5.58165C16.5449 4.57058 15.9302 3.65246 15.1548 2.88034L15.1558 2.87929ZM9.26724 15.6919C8.0271 15.6921 6.80973 15.3588 5.74272 14.7268L5.48961 14.5755L2.87038 15.2613L3.56982 12.7083L3.40599 12.4457C2.71049 11.3438 2.34295 10.0667 2.34632 8.76365C2.34854 6.92797 3.07897 5.16815 4.37729 3.87042C5.67561 2.57269 7.43576 1.84307 9.27144 1.84168C11.1188 1.84168 12.859 2.56423 14.1644 3.86965C14.8086 4.51152 15.3192 5.2747 15.6668 6.11507C16.0143 6.95544 16.1919 7.85636 16.1892 8.76575C16.1861 12.5854 13.0816 15.6909 9.26724 15.6909V15.6919ZM13.0617 10.507C12.8548 10.402 11.8308 9.89999 11.6407 9.83067C11.4506 9.76136 11.312 9.72565 11.1713 9.93569C11.0337 10.1426 10.6336 10.612 10.5117 10.7528C10.3899 10.8903 10.2691 10.9103 10.0623 10.8053C9.85536 10.7002 9.18218 10.4808 8.38821 9.77186C7.77068 9.2205 7.35165 8.53786 7.22982 8.33096C7.108 8.12407 7.21617 8.0096 7.32224 7.90773C7.41781 7.81531 7.52914 7.66513 7.63416 7.5433C7.73918 7.42148 7.77174 7.33641 7.84105 7.19568C7.91036 7.0581 7.87676 6.93628 7.82425 6.83125C7.77173 6.72623 7.3548 5.70227 7.18466 5.28534C7.01768 4.87785 6.84334 4.93457 6.71522 4.92721C6.59339 4.92091 6.45581 4.92091 6.31824 4.92091C6.18066 4.92091 5.95381 4.97342 5.76372 5.18032C5.57363 5.38721 5.03487 5.89236 5.03487 6.91632C5.03487 7.94028 5.77947 8.92854 5.8845 9.06927C5.98952 9.20684 7.35165 11.3104 9.43843 12.2105C9.93413 12.4237 10.3217 12.5518 10.6231 12.6505C11.1219 12.808 11.5746 12.7849 11.9327 12.7324C12.3328 12.6736 13.1635 12.2304 13.3379 11.7442C13.5122 11.2579 13.5122 10.842 13.4597 10.7559C13.4103 10.6635 13.2728 10.612 13.0627 10.506L13.0617 10.507Z" />
</svg>
</symbol>
<symbol id="instagram" viewBox="0 0 24 24" >
<svg width="24" height="24"   xmlns="http://www.w3.org/2000/svg">
<path d="M11.8056 5.99111C8.48036 5.99111 5.79677 8.6747 5.79677 11.9999C5.79677 15.3251 8.48036 18.0087 11.8056 18.0087C15.1308 18.0087 17.8143 15.3251 17.8143 11.9999C17.8143 8.6747 15.1308 5.99111 11.8056 5.99111ZM11.8056 15.9052C9.65517 15.9052 7.90028 14.1503 7.90028 11.9999C7.90028 9.84951 9.65517 8.09462 11.8056 8.09462C13.9559 8.09462 15.7108 9.84951 15.7108 11.9999C15.7108 14.1503 13.9559 15.9052 11.8056 15.9052ZM18.0604 4.34462C17.2841 4.34462 16.6571 4.97158 16.6571 5.74794C16.6571 6.52431 17.2841 7.15126 18.0604 7.15126C18.8368 7.15126 19.4638 6.52724 19.4638 5.74794C19.464 5.56359 19.4279 5.381 19.3574 5.21064C19.287 5.04028 19.1836 4.88549 19.0533 4.75513C18.9229 4.62477 18.7681 4.52141 18.5977 4.45097C18.4274 4.38053 18.2448 4.34439 18.0604 4.34462ZM23.5184 11.9999C23.5184 10.3827 23.5331 8.78017 23.4423 7.16591C23.3515 5.29091 22.9237 3.62685 21.5526 2.25575C20.1786 0.881731 18.5175 0.456926 16.6425 0.366106C15.0253 0.275285 13.4227 0.289934 11.8085 0.289934C10.1913 0.289934 8.58876 0.275285 6.9745 0.366106C5.0995 0.456926 3.43544 0.88466 2.06435 2.25575C0.690324 3.62978 0.26552 5.29091 0.174699 7.16591C0.0838792 8.7831 0.0985277 10.3856 0.0985277 11.9999C0.0985277 13.6142 0.0838792 15.2196 0.174699 16.8339C0.26552 18.7089 0.693254 20.3729 2.06435 21.744C3.43837 23.1181 5.0995 23.5429 6.9745 23.6337C8.59169 23.7245 10.1942 23.7099 11.8085 23.7099C13.4257 23.7099 15.0282 23.7245 16.6425 23.6337C18.5175 23.5429 20.1815 23.1151 21.5526 21.744C22.9267 20.37 23.3515 18.7089 23.4423 16.8339C23.536 15.2196 23.5184 13.6171 23.5184 11.9999ZM20.9403 18.9081C20.7265 19.4413 20.4686 19.8397 20.0556 20.2499C19.6425 20.663 19.247 20.9208 18.7138 21.1347C17.1727 21.747 13.5136 21.6093 11.8056 21.6093C10.0975 21.6093 6.43544 21.747 4.89443 21.1376C4.36122 20.9237 3.96279 20.6659 3.55263 20.2528C3.13954 19.8397 2.88173 19.4442 2.66786 18.911C2.05849 17.3671 2.19618 13.7079 2.19618 11.9999C2.19618 10.2919 2.05849 6.62978 2.66786 5.08876C2.88173 4.55556 3.13954 4.15712 3.55263 3.74697C3.96571 3.33681 4.36122 3.07607 4.89443 2.8622C6.43544 2.25283 10.0975 2.39052 11.8056 2.39052C13.5136 2.39052 17.1757 2.25283 18.7167 2.8622C19.2499 3.07607 19.6483 3.33388 20.0585 3.74697C20.4716 4.16005 20.7294 4.55556 20.9433 5.08876C21.5526 6.62978 21.4149 10.2919 21.4149 11.9999C21.4149 13.7079 21.5526 17.3671 20.9403 18.9081Z" />
</svg>
</symbol>
<symbol id="list"  viewBox="0 0 15 15">
  <svg width="14" height="14" viewBox="0 0 15 15" xmlns="http://www.w3.org/2000/svg">
      <rect y="0.5" width="14.5036" height="3.22302" rx="1"  />
      <rect y="11.2773" width="14.5036" height="3.22302" rx="1" />
      <rect y="5.88867" width="14.5036" height="3.22302" rx="1" />
    </svg>
</symbol>
<symbol id="tiles"  viewBox="0 0 15 15">
<svg width="15" height="14" viewBox="0 0 15 14" xmlns="http://www.w3.org/2000/svg">
<rect x="0.00390625" width="5.44444" height="5.44444" rx="1"/>
<rect x="0.00390625" y="8.55469" width="5.44444" height="5.44444" rx="1"/>
<rect x="8.55957" width="5.44444" height="5.44444" rx="1" />
<rect x="8.55957" y="8.55469" width="5.44444" height="5.44444" rx="1"/>
</svg>
</symbol>

<symbol id="mail"  viewBox="0 0 15 15">
<svg width="15" height="15" viewBox="0 0 15 15"  xmlns="http://www.w3.org/2000/svg">
<g clip-path="url(#clip0_2831_1336)">
<path d="M13.6603 13.3928C13.9975 13.3928 14.2896 13.2814 14.538 13.0616L10.2883 8.81169C10.1863 8.8847 10.0875 8.9557 9.99411 9.02321C9.67608 9.25753 9.41796 9.44037 9.21976 9.57139C9.02158 9.70271 8.75791 9.83656 8.42877 9.97322C8.09941 10.11 7.79257 10.1782 7.50792 10.1782H7.49959H7.49126C7.20659 10.1782 6.89975 10.1101 6.57042 9.97322C6.24108 9.83656 5.97741 9.70271 5.77942 9.57139C5.58124 9.44037 5.32326 9.25756 5.00507 9.02321C4.9164 8.95821 4.81806 8.88688 4.71174 8.81055L0.461182 13.0616C0.709523 13.2814 1.00187 13.3928 1.33902 13.3928H13.6603Z"/>
<path d="M0.845514 6.13653C0.52751 5.92452 0.245509 5.68171 0 5.4082V11.8741L3.7457 8.12838C2.99635 7.60523 2.03085 6.94204 0.845514 6.13653Z" />
<path d="M14.1632 6.13653C13.0231 6.90822 12.0541 7.57255 11.2561 8.12988L15.0003 11.8742V5.4082C14.7602 5.67621 14.4812 5.91886 14.1632 6.13653Z" />
<path d="M13.6607 1.60742H1.33944C0.909593 1.60742 0.579117 1.75258 0.347606 2.04258C0.115904 2.33273 0.000244141 2.69559 0.000244141 3.13075C0.000244141 3.48225 0.153731 3.86311 0.46057 4.27343C0.767408 4.68359 1.09391 5.00576 1.43991 5.24011C1.62959 5.37412 2.2016 5.77178 3.15594 6.43296C3.67111 6.78996 4.11913 7.10113 4.50413 7.36965C4.83229 7.5983 5.1153 7.79631 5.34896 7.96064C5.37578 7.97946 5.41797 8.00963 5.47396 8.04966C5.53428 8.09299 5.61062 8.14798 5.70479 8.21598C5.88614 8.34713 6.03679 8.45315 6.15678 8.53415C6.27661 8.61516 6.42179 8.70566 6.59211 8.80615C6.76229 8.90651 6.9228 8.98197 7.07346 9.03216C7.22414 9.08233 7.36363 9.10749 7.49195 9.10749H7.50029H7.50862C7.63691 9.10749 7.77643 9.08233 7.92714 9.03216C8.07777 8.98197 8.23815 8.90667 8.40846 8.80615C8.57862 8.70566 8.72361 8.61497 8.84382 8.53415C8.96381 8.45315 9.11446 8.34716 9.29584 8.21598C9.38982 8.14798 9.46615 8.09297 9.52647 8.0498C9.58249 8.0096 9.62465 7.97962 9.65164 7.96064C9.83367 7.83398 10.1173 7.63678 10.4987 7.37196C11.1927 6.8898 12.2147 6.18012 13.569 5.24011C13.9764 4.9556 14.3167 4.61227 14.5902 4.2106C14.8632 3.80894 15.0001 3.38761 15.0001 2.94676C15.0001 2.57843 14.8674 2.26326 14.6025 2.00075C14.3374 1.73858 14.0234 1.60742 13.6607 1.60742Z" />
</g>
<defs>
<clipPath id="clip0_2831_1336">
<rect width="15" height="15" />
</clipPath>
</defs>
</svg>
</symbol>

<symbol id="password" viewBox="0 0 20 20">
<svg width="20" height="20"  xmlns="http://www.w3.org/2000/svg">
<g clip-path="url(#clip0_2831_1557)">
<path d="M15.625 7.5H15V5C15 2.2425 12.7575 0 10 0C7.2425 0 5 2.2425 5 5V7.5H4.375C3.34167 7.5 2.5 8.34083 2.5 9.375V18.125C2.5 19.1592 3.34167 20 4.375 20H15.625C16.6583 20 17.5 19.1592 17.5 18.125V9.375C17.5 8.34083 16.6583 7.5 15.625 7.5ZM6.66667 5C6.66667 3.16167 8.16167 1.66667 10 1.66667C11.8383 1.66667 13.3333 3.16167 13.3333 5V7.5H6.66667V5ZM10.8333 13.935V15.8333C10.8333 16.2933 10.4608 16.6667 10 16.6667C9.53917 16.6667 9.16667 16.2933 9.16667 15.8333V13.935C8.67083 13.6458 8.33333 13.1142 8.33333 12.5C8.33333 11.5808 9.08083 10.8333 10 10.8333C10.9192 10.8333 11.6667 11.5808 11.6667 12.5C11.6667 13.1142 11.3292 13.6458 10.8333 13.935Z"/>
</g>
<defs>
<clipPath id="clip0_2831_1557">
<rect width="20" height="20" fill="white"/>
</clipPath>
</defs>
</svg>
</symbol>

<symbol id="clock" viewBox="0 0 15 15">
<svg width="15" height="15" viewBox="0 0 15 15" fill="none" xmlns="http://www.w3.org/2000/svg">
<path d="M7.5 0C3.36443 0 0 3.36443 0 7.5C0 11.6356 3.36443 15 7.5 15C11.6356 15 15 11.6356 15 7.5C15 3.36443 11.6356 0 7.5 0ZM7.5 13.3607C4.26835 13.3607 1.63934 10.7317 1.63934 7.5C1.63934 4.26851 4.26835 1.63934 7.5 1.63934C10.7317 1.63934 13.3607 4.26851 13.3607 7.5C13.3607 10.7317 10.7317 13.3607 7.5 13.3607Z" fill="white"/>
<path d="M8.14909 7.5093V4.36588C8.14909 4.01489 7.86467 3.73047 7.51382 3.73047C7.16286 3.73047 6.87842 4.01489 6.87842 4.36588V7.71229C6.87842 7.72228 6.88088 7.73166 6.88136 7.74165C6.87301 7.91443 6.93253 8.08985 7.06448 8.22183L9.43088 10.5881C9.67909 10.8363 10.0814 10.8363 10.3294 10.5881C10.5774 10.3399 10.5776 9.93757 10.3294 9.68953L8.14909 7.5093Z" fill="white"/>
</svg>
</symbol>


<symbol id="alert" viewBox="0 0 35 35">
<svg width="35" height="35" viewBox="0 0 35 35" fill="none" xmlns="http://www.w3.org/2000/svg">
<path d="M17.5 0C7.875 0 0 7.875 0 17.5C0 27.125 7.875 35 17.5 35C27.125 35 35 27.125 35 17.5C35 7.875 27.125 0 17.5 0ZM17.5 3.5C19.425 3.5 20.825 5.075 20.65 7L19.25 21H15.75L15.05 14L14.35 7C14.175 5.075 15.575 3.5 17.5 3.5ZM17.5 31.5C15.575 31.5 14 29.925 14 28C14 26.075 15.575 24.5 17.5 24.5C19.425 24.5 21 26.075 21 28C21 29.925 19.425 31.5 17.5 31.5Z" fill="#5039BD"/>
</svg>
</symbol>

<symbol id="warning" viewBox="0 0 21 20">
<svg width="21" height="20"  xmlns="http://www.w3.org/2000/svg">
<path d="M10.5 0C5 0 0.5 4.5 0.5 10C0.5 15.5 5 20 10.5 20C16 20 20.5 15.5 20.5 10C20.5 4.5 16 0 10.5 0ZM10.5 2C11.6 2 12.4 2.9 12.3 4L11.5 12H9.5L8.7 4C8.6 2.9 9.4 2 10.5 2ZM10.5 18C9.4 18 8.5 17.1 8.5 16C8.5 14.9 9.4 14 10.5 14C11.6 14 12.5 14.9 12.5 16C12.5 17.1 11.6 18 10.5 18Z" />
</svg>
</symbol>

<symbol id="cross" viewBox="0 0 10 10">
<svg width="10" height="10" viewBox="0 0 10 10" fill="none" xmlns="http://www.w3.org/2000/svg">
<path d="M5.91628 5.00007L9.81017 1.10608C10.0636 0.852787 10.0636 0.443255 9.81017 0.189966C9.55688 -0.0633221 9.14735 -0.0633221 8.89406 0.189966L5.00005 4.08396L1.10617 0.189966C0.852759 -0.0633221 0.443344 -0.0633221 0.190056 0.189966C-0.0633519 0.443255 -0.0633519 0.852787 0.190056 1.10608L4.08394 5.00007L0.190056 8.89407C-0.0633519 9.14736 -0.0633519 9.55689 0.190056 9.81018C0.316285 9.93653 0.482257 10 0.648111 10C0.813965 10 0.979819 9.93653 1.10617 9.81018L5.00005 5.91618L8.89406 9.81018C9.0204 9.93653 9.18626 10 9.35211 10C9.51797 10 9.68382 9.93653 9.81017 9.81018C10.0636 9.55689 10.0636 9.14736 9.81017 8.89407L5.91628 5.00007Z" fill="#664EF9"/>
</svg>

</symbol>

<symbol id="town" viewBox="0 0 25 25" >
<svg width="25" height="25" viewBox="0 0 25 25"  xmlns="http://www.w3.org/2000/svg">
<path d="M24.2676 23.535H22.6465V2.30127C22.6465 1.89691 22.3186 1.56885 21.9141 1.56885H12.5C12.0955 1.56885 11.7676 1.89691 11.7676 2.30127V8.62947H3.0859C2.68135 8.62947 2.35348 8.95734 2.35348 9.36189V23.535H0.732422C0.327873 23.535 0 23.8629 0 24.2674C0 24.672 0.327873 24.9999 0.732422 24.9999H24.2676C24.6721 24.9999 25 24.672 25 24.2674C25 23.8629 24.6721 23.535 24.2676 23.535ZM3.81832 10.0943H14.9055V23.535H11.6634V20.345C11.6634 19.9404 11.3354 19.6126 10.931 19.6126H7.79305C7.3885 19.6126 7.06062 19.9404 7.06062 20.345V23.535H3.81832V10.0943ZM8.52547 23.535V21.0774H10.1986V23.535H8.52547ZM16.3704 23.535V9.36189C16.3704 8.95734 16.0425 8.62947 15.638 8.62947H13.2324V3.03369H21.1817V23.535H16.3704Z" />
<path d="M6.22363 11.7676C5.81908 11.7676 5.49121 12.0955 5.49121 12.5V13.2845C5.49121 13.689 5.81908 14.0169 6.22363 14.0169C6.62799 14.0169 6.95605 13.689 6.95605 13.2845V12.5C6.95605 12.0955 6.62799 11.7676 6.22363 11.7676Z" />
<path d="M6.22363 15.6899C5.81908 15.6899 5.49121 16.018 5.49121 16.4224V17.2069C5.49121 17.6114 5.81908 17.9393 6.22363 17.9393C6.62799 17.9393 6.95605 17.6114 6.95605 17.2069V16.4224C6.95605 16.018 6.62799 15.6899 6.22363 15.6899Z"/>
<path d="M9.3623 14.0169C9.76685 14.0169 10.0947 13.689 10.0947 13.2845V12.5C10.0947 12.0955 9.76685 11.7676 9.3623 11.7676C8.95776 11.7676 8.62988 12.0955 8.62988 12.5V13.2845C8.62988 13.689 8.95776 14.0169 9.3623 14.0169Z"/>
<path d="M9.3623 17.9398C9.76685 17.9398 10.0947 17.6117 10.0947 17.2073V16.4229C10.0947 16.0183 9.76685 15.6904 9.3623 15.6904C8.95776 15.6904 8.62988 16.0183 8.62988 16.4229V17.2073C8.62988 17.6117 8.95776 17.9398 9.3623 17.9398Z" />
<path d="M12.5 14.0169C12.9045 14.0169 13.2324 13.689 13.2324 13.2845V12.5C13.2324 12.0955 12.9045 11.7676 12.5 11.7676C12.0955 11.7676 11.7676 12.0955 11.7676 12.5V13.2845C11.7676 13.689 12.0955 14.0169 12.5 14.0169Z"/>
<path d="M18.7764 12.5522C18.372 12.5522 18.0439 12.8801 18.0439 13.2847V14.0692C18.0439 14.4737 18.372 14.8016 18.7764 14.8016C19.1809 14.8016 19.5088 14.4737 19.5088 14.0692V13.2847C19.5088 12.8801 19.1809 12.5522 18.7764 12.5522Z" />
<path d="M18.7764 8.62939C18.372 8.62939 18.0439 8.95727 18.0439 9.36182V10.1463C18.0439 10.5509 18.372 10.8787 18.7764 10.8787C19.1809 10.8787 19.5088 10.5509 19.5088 10.1463V9.36182C19.5088 8.95727 19.1809 8.62939 18.7764 8.62939Z"/>
<path d="M18.7764 4.70703C18.372 4.70703 18.0439 5.0349 18.0439 5.43945V6.22395C18.0439 6.6283 18.372 6.95637 18.7764 6.95637C19.1809 6.95637 19.5088 6.6283 19.5088 6.22395V5.43945C19.5088 5.0349 19.1809 4.70703 18.7764 4.70703Z" />
<path d="M15.6377 4.70703C15.2333 4.70703 14.9053 5.0349 14.9053 5.43945V6.22395C14.9053 6.6283 15.2333 6.95637 15.6377 6.95637C16.0422 6.95637 16.3701 6.6283 16.3701 6.22395V5.43945C16.3701 5.0349 16.0422 4.70703 15.6377 4.70703Z" />
<path d="M12.5 17.9398C12.9045 17.9398 13.2324 17.6117 13.2324 17.2073V16.4229C13.2324 16.0183 12.9045 15.6904 12.5 15.6904C12.0955 15.6904 11.7676 16.0183 11.7676 16.4229V17.2073C11.7676 17.6117 12.0955 17.9398 12.5 17.9398Z"/>
<path d="M18.7764 16.4746C18.372 16.4746 18.0439 16.8025 18.0439 17.207V17.9915C18.0439 18.3959 18.372 18.7239 18.7764 18.7239C19.1809 18.7239 19.5088 18.3959 19.5088 17.9915V17.207C19.5088 16.8025 19.1809 16.4746 18.7764 16.4746Z"/>
</svg>
</symbol>

<symbol id="cottage" viewBox="0 0 26 26">
<svg width="26" height="26" viewBox="0 0 26 26" xmlns="http://www.w3.org/2000/svg">
<g clip-path="url(#clip0_504_159)">
<path d="M21.3008 24.6201H4.69922C3.46074 24.6201 2.45312 23.6126 2.45312 22.374V10.5566C2.45312 10.1252 2.80288 9.77539 3.23438 9.77539C3.66587 9.77539 4.01562 10.1252 4.01562 10.5566V22.374C4.01562 22.751 4.32227 23.0576 4.69922 23.0576H21.3008C21.6777 23.0576 21.9844 22.751 21.9844 22.374V10.5566C21.9844 10.1252 22.3341 9.77539 22.7656 9.77539C23.1971 9.77539 23.5469 10.1252 23.5469 10.5566V22.374C23.5469 23.6125 22.5393 24.6201 21.3008 24.6201Z"/>
<path d="M24.7187 13.2911C24.5188 13.2911 24.3189 13.2148 24.1663 13.0622L14.4501 3.34604C13.6505 2.54643 12.3495 2.54643 11.5499 3.34604L1.83368 13.0622C1.5286 13.3674 1.03392 13.3674 0.728845 13.0622C0.423718 12.7572 0.423718 12.2625 0.728845 11.9574L10.4451 2.24116C11.8538 0.832373 14.1462 0.832373 15.5549 2.24116L25.2711 11.9574C25.5763 12.2625 25.5763 12.7571 25.2711 13.0622C25.1186 13.2148 24.9187 13.2911 24.7187 13.2911Z"/>
<path d="M16.125 24.6206H9.875C9.44351 24.6206 9.09375 24.2708 9.09375 23.8394V16.9058C9.09375 15.5596 10.189 14.4644 11.5352 14.4644H14.4648C15.811 14.4644 16.9062 15.5596 16.9062 16.9058V23.8394C16.9062 24.2708 16.5565 24.6206 16.125 24.6206ZM10.6562 23.0581H15.3438V16.9058C15.3438 16.4211 14.9495 16.0269 14.4648 16.0269H11.5352C11.0505 16.0269 10.6562 16.4211 10.6562 16.9058V23.0581Z"/>
</g>
<defs>
<clipPath id="clip0_504_159">
<rect width="25" height="25" fill="white" transform="translate(0.5 0.402344)"/>
</clipPath>
</defs>
</svg>
</symbol>
<symbol id="car" viewBox="0 0 22 22">
<svg width="22" height="22" viewBox="0 0 22 22" xmlns="http://www.w3.org/2000/svg">
<g opacity="0.7">
<path d="M20.5081 8.30655L16.3164 6.62664C15.6186 6.34679 14.8835 6.20508 14.1313 6.20508H11.5619C10.6415 6.20508 9.72095 6.42551 8.90033 6.84304L5.10228 8.77444L2.37772 9.17169C1.71729 9.26798 1.11349 9.5991 0.676672 10.1043C0.240238 10.6092 0 11.2548 0 11.9219V13.5299C0 13.7782 0.201566 13.9798 0.449883 13.9798H2.37995C2.47668 14.4175 2.69848 14.8179 3.02599 15.1373C3.46148 15.5607 4.03601 15.7942 4.6438 15.7942C5.25117 15.7942 5.8257 15.5607 6.26119 15.1373C6.58917 14.8175 6.81141 14.4162 6.9077 13.9798H14.9712C15.0679 14.4175 15.2897 14.8179 15.6177 15.1369C16.0528 15.5607 16.6273 15.7942 17.2346 15.7942C17.8424 15.7942 18.417 15.5607 18.852 15.1373C19.18 14.8179 19.4018 14.4175 19.4985 13.9798H21.5501C21.7984 13.9798 22 13.7782 22 13.5299V10.512C22 9.53567 21.4142 8.67011 20.5081 8.30655ZM15.9817 7.46166L19.2174 8.75871H16.7758L15.701 7.35909C15.795 7.39059 15.8886 7.42479 15.9817 7.46166ZM11.9839 7.10489H14.1313C14.2132 7.10489 14.2946 7.10669 14.3756 7.11073L15.6411 8.75871H11.9839V7.10489ZM9.30793 7.64522C9.86086 7.36403 10.4669 7.18859 11.0841 7.12873V8.75871H7.11829L9.30793 7.64522ZM2.438 10.0742C2.25311 10.7 1.70109 11.1697 1.03254 11.2336C1.26689 10.6456 1.79193 10.1934 2.438 10.0742ZM4.64337 14.8944C3.85967 14.8944 3.22442 14.2592 3.22442 13.4755C3.22442 12.6918 3.85967 12.0565 4.64337 12.0565C5.42708 12.0565 6.06233 12.6918 6.06233 13.4755C6.06238 14.2592 5.42712 14.8944 4.64337 14.8944ZM17.2352 14.8944C16.4514 14.8944 15.8157 14.2592 15.8157 13.4755C15.8157 12.6918 16.4514 12.0565 17.2352 12.0565C18.0189 12.0565 18.6541 12.6918 18.6541 13.4755C18.6541 14.2592 18.0189 14.8944 17.2352 14.8944ZM21.1002 13.08H19.5192C19.3307 11.9895 18.3788 11.1567 17.2347 11.1567C16.091 11.1567 15.1391 11.9895 14.9505 13.08H6.92841C6.73991 11.9895 5.78746 11.1567 4.64385 11.1567C3.49976 11.1567 2.54779 11.9895 2.35929 13.08H0.899809V12.1406C2.17439 12.1289 3.22622 11.1697 3.38323 9.9343L5.27506 9.65852H16.554H16.5549H19.4018V10.2443C19.4018 11.0676 20.0717 11.7375 20.8946 11.7375H21.1002V13.08ZM21.1002 10.8377H20.8946C20.5679 10.8377 20.3016 10.5714 20.3016 10.2443V9.65857H20.8294C21.0017 9.90241 21.1002 10.1975 21.1002 10.512V10.8377Z"/>
</g>
</svg>

</symbol>


<symbol id="sauna" viewBox="0 0 21 21" >
<svg width="21" height="21" viewBox="0 0 21 21" xmlns="http://www.w3.org/2000/svg">
<g opacity="0.7" clip-path="url(#clip0_329_638)">
<path d="M20.3848 11.1569H19.7286V10.0716C19.7286 9.36806 19.3375 8.73536 18.7082 8.42069L17.7207 7.92706C17.0089 7.57106 16.1527 7.71013 15.5902 8.27281L14.8067 9.05628L14.266 8.5157C13.6235 7.87323 12.6215 7.80481 11.9019 8.30966L9.94761 7.65822C9.47993 7.50216 8.97941 7.53789 8.53849 7.75835L6.59088 8.73216C6.17496 7.93491 5.22695 7.54927 4.37123 7.83446L2.53353 8.44697C1.77858 8.69867 1.27149 9.40235 1.27149 10.198V11.1567H0.615237C0.275415 11.1567 0 11.4323 0 11.772V20.4263C0 20.7661 0.275415 21.0416 0.615237 21.0416H20.3848C20.7245 21.0416 20.9999 20.7661 20.9999 20.4263V11.772C20.9999 11.4323 20.7245 11.1569 20.3848 11.1569ZM17.1704 9.0276L18.158 9.52139C18.3677 9.62617 18.4981 9.83702 18.4981 10.0716V11.1569H16.0372V11.0513C16.0372 10.6444 15.906 10.2576 15.6642 9.93892L16.4603 9.1428C16.6478 8.95534 16.9331 8.90888 17.1704 9.0276ZM13.396 9.38569L14.6265 10.6162C14.7426 10.7325 14.8067 10.8869 14.8067 11.0513V11.1567H10.7548L12.5258 9.38569C12.7658 9.14584 13.1561 9.14584 13.396 9.38569ZM9.08884 8.85889C9.23576 8.78535 9.40255 8.77349 9.55844 8.8254L10.8991 9.27241L9.01466 11.1567H7.42386V10.5415C7.42386 10.446 7.40159 10.3518 7.35881 10.2664L7.14187 9.83238L9.08884 8.85889ZM2.50196 10.198C2.50196 9.93267 2.67099 9.69827 2.9227 9.61432L4.76023 9.0018C5.04879 8.90551 5.36906 9.03817 5.50509 9.31022C5.75102 9.80225 5.88609 10.0724 6.19338 10.6868V11.1567H2.50196V10.198ZM1.23047 12.3874H19.7696V13.6178H1.23047V12.3874ZM9.8848 14.8483V19.8111H6.19338V14.8483H9.8848ZM11.1153 14.8483H14.8067V19.8111H11.1153V14.8483ZM1.23047 14.8483H4.96291V19.8111H1.23047V14.8483ZM16.0372 19.8111V14.8483H19.7696V19.8111H16.0372Z" />
<path d="M7.11338 2.6901C6.52938 3.07943 6.18091 3.72255 6.18091 4.41068C6.18091 5.09866 6.52954 5.74193 7.11338 6.1311C7.39552 6.3192 7.77764 6.24358 7.96654 5.96047C8.15496 5.67769 8.07853 5.29573 7.79575 5.10731C7.55141 4.94437 7.41122 4.69042 7.41122 4.41068C7.41122 4.13078 7.55141 3.87684 7.79575 3.7139C8.37974 3.32457 8.72838 2.65742 8.72822 1.92923C8.72822 1.20088 8.37974 0.53373 7.79575 0.1444C7.51312 -0.0440159 7.131 0.0322478 6.94258 0.315033C6.75417 0.597817 6.83059 0.979777 7.11322 1.16819C7.35402 1.32873 7.49774 1.61312 7.49774 1.92907C7.4979 2.24502 7.35419 2.52956 7.11338 2.6901Z"/>
<path d="M10.1896 2.6901C9.60559 3.07943 9.25696 3.72255 9.25696 4.41068C9.25696 5.09866 9.60559 5.74193 10.1896 6.1311C10.4717 6.3192 10.8539 6.24358 11.0428 5.96047C11.2312 5.67769 11.1547 5.29573 10.872 5.10731C10.6276 4.94437 10.4874 4.69042 10.4874 4.41068C10.4874 4.13078 10.6276 3.87684 10.872 3.7139C11.456 3.32473 11.8046 2.65742 11.8046 1.92923C11.8046 1.20088 11.456 0.53373 10.8721 0.1444C10.5893 -0.0440159 10.2074 0.0322478 10.019 0.315033C9.83038 0.597817 9.90681 0.979777 10.1896 1.16819C10.4304 1.32873 10.5741 1.61328 10.5741 1.92923C10.5741 2.24502 10.4304 2.52956 10.1896 2.6901Z"/>
<path d="M13.1915 2.6901C12.6077 3.07927 12.259 3.72255 12.259 4.41052C12.259 5.09866 12.6077 5.74177 13.1915 6.1311C13.4738 6.3192 13.8559 6.24374 14.0447 5.96047C14.2332 5.67769 14.1568 5.29573 13.8742 5.10731C13.6297 4.94437 13.4895 4.69042 13.4895 4.41068C13.4895 4.13078 13.6297 3.87684 13.8742 3.7139C14.458 3.32457 14.8067 2.65742 14.8067 1.92923C14.8067 1.20088 14.458 0.53373 13.8742 0.1444C13.5914 -0.0440159 13.2094 0.0322478 13.0209 0.315032C12.8325 0.597817 12.9089 0.979777 13.1915 1.16819C13.4323 1.32873 13.5762 1.61312 13.5762 1.92907C13.5762 2.24502 13.4323 2.52956 13.1915 2.6901Z"/>
</g>
<defs>
<clipPath id="clip0_329_638">
<rect width="21" height="21" fill="white"/>
</clipPath>
</defs>
</svg>
</symbol>

<symbol id="pencil" viewBox="0 0 12 12">
<svg width="12" height="12" viewBox="0 0 12 12" xmlns="http://www.w3.org/2000/svg">
<path d="M0 9.4988V11.9991H2.50035L9.87802 4.62144L7.37767 2.12109L0 9.4988Z"/>
<path d="M11.805 1.7519L10.2481 0.195027C9.98808 -0.065009 9.56468 -0.065009 9.30464 0.195027L8.08447 1.4152L10.5848 3.91554L11.805 2.69537C12.0651 2.43534 12.0651 2.01193 11.805 1.7519Z"/>
</svg>
</symbol>

<symbol id="delete" viewBox="0 0 12 14">
<svg width="12" height="14" viewBox="0 0 12 14"  xmlns="http://www.w3.org/2000/svg">
<path d="M1.74121 12.412C1.74121 13.2602 2.42817 13.9471 3.27636 13.9471H9.41691C10.2651 13.9471 10.952 13.2602 10.952 12.412V3.20117H1.74121V12.412Z"/>
<path d="M9.03309 0.898415L8.2655 0.130859H4.42769L3.6601 0.898415H0.973633V2.43356H11.7196V0.898415H9.03309Z" />
</svg>
</symbol>
</svg> 



