<svg display="none" xmlns="http://www.w3.org/2000/svg">
<symbol id="heart" viewBox="0 0 512 512" >
<svg xmlns="http://www.w3.org/2000/svg">
<path d="M244 84L255.1 96L267.1 84.02C300.6 51.37 347 36.51 392.6 44.1C461.5 55.58 512 115.2 512 185.1V190.9C512 232.4 494.8 272.1 464.4 300.4L283.7 469.1C276.2 476.1 266.3 480 256 480C245.7 480 235.8 476.1 228.3 469.1L47.59 300.4C17.23 272.1 0 232.4 0 190.9V185.1C0 115.2 50.52 55.58 119.4 44.1C164.1 36.51 211.4 51.37 244 84C243.1 84 244 84.01 244 84L244 84zM255.1 163.9L210.1 117.1C188.4 96.28 157.6 86.4 127.3 91.44C81.55 99.07 48 138.7 48 185.1V190.9C48 219.1 59.71 246.1 80.34 265.3L256 429.3L431.7 265.3C452.3 246.1 464 219.1 464 190.9V185.1C464 138.7 430.4 99.07 384.7 91.44C354.4 86.4 323.6 96.28 301.9 117.1L255.1 163.9z"/>
</svg>
</symbol>
<symbol id="mark" viewBox="0 0 9 10">
<path d="M7.43757 1.74419C6.70501 0.627907 5.49571 0 4.13525 0C2.78641 0 1.57711 0.627907 0.821293 1.74419C0.0654788 2.83721 -0.10894 4.23256 0.356176 5.45349C0.484083 5.77907 0.681758 6.11628 0.937572 6.4186L3.87943 9.88372C3.9492 9.95349 4.01897 10 4.12362 10C4.22827 10 4.29804 9.95349 4.3678 9.88372L7.32129 6.4186C7.57711 6.11628 7.78641 5.7907 7.90269 5.45349C8.3678 4.23256 8.19339 2.83721 7.43757 1.74419ZM4.13525 5.86047C3.13525 5.86047 2.30966 5.03488 2.30966 4.03488C2.30966 3.03488 3.13525 2.2093 4.13525 2.2093C5.13525 2.2093 5.96083 3.03488 5.96083 4.03488C5.96083 5.03488 5.14687 5.86047 4.13525 5.86047Z" />
</symbol>
<symbol id="arrow"  viewBox="0 0 27 27">
<svg width="27" height="27" viewBox="0 0 27 27" fill="none" xmlns="http://www.w3.org/2000/svg">
<path d="M10 20.2852L16.5714 13.7137L10 7.1423" stroke="white" stroke-width="2" stroke-linecap="round" stroke-linejoin="round"/>
</svg>
</symbol>
<symbol id="user" viewBox="0 0 16 16">
<g clip-path="url(#clip0_2831_1903)">
<path d="M8.001 0.792969C5.85814 0.792969 4.10645 2.54466 4.10645 4.68753C4.10645 6.8304 5.85814 8.5821 8.001 8.5821C10.1439 8.5821 11.8956 6.8304 11.8956 4.68753C11.8956 2.54466 10.1439 0.792969 8.001 0.792969Z" fill="#686868"/>
<path d="M14.6852 11.695C14.5832 11.4399 14.4471 11.2018 14.2941 10.9807C13.5118 9.8242 12.3043 9.0589 10.9438 8.87182C10.7737 8.85483 10.5866 8.88882 10.4506 8.99087C9.73627 9.51808 8.88595 9.79019 8.00157 9.79019C7.1172 9.79019 6.26687 9.51808 5.55258 8.99087C5.41651 8.88882 5.22944 8.83781 5.05938 8.87182C3.69884 9.0589 2.47436 9.8242 1.70906 10.9807C1.556 11.2018 1.41993 11.4569 1.31791 11.695C1.2669 11.797 1.2839 11.9161 1.3349 12.0181C1.47097 12.2562 1.64102 12.4943 1.79408 12.6984C2.03217 13.0215 2.28728 13.3106 2.57641 13.5827C2.81449 13.8208 3.0866 14.0419 3.35873 14.263C4.70225 15.2664 6.31791 15.7936 7.98458 15.7936C9.65125 15.7936 11.2669 15.2664 12.6104 14.263C12.8825 14.0589 13.1546 13.8208 13.3927 13.5827C13.6649 13.3106 13.937 13.0215 14.1751 12.6984C14.3451 12.4773 14.4982 12.2562 14.6343 12.0181C14.7192 11.9161 14.7362 11.797 14.6852 11.695Z" fill="#686868"/>
</g>
 </symbol>
<symbol id="metro" viewBox="0 0 20 22">
<svg width="20" height="22" viewBox="0 0 20 22"  xmlns="http://www.w3.org/2000/svg">
<path d="M19.6401 15.4773H18.3812L14.4755 4.50977L9.99979 11.1994L5.21594 4.58926L1.61882 15.4773H0.359905L0 16.9373H4.77911L6.65514 11.5998L10.0565 16.2942L10.0769 16.3238L10.0978 16.2942L13.3449 11.5998L15.2209 16.9373H20L19.6401 15.4773Z"  />
</svg>
</symbol>

<symbol id="dot" viewBox="0 0 6 7">
<path d="M5 3.20732C5 4.51647 3.97725 5.54941 2.75 5.54941C1.52275 5.54941 0.5 4.51647 0.5 3.20732C0.5 1.89817 1.52275 0.865234 2.75 0.865234C3.97725 0.865234 5 1.89817 5 3.20732Z" />
</symbol>

<symbol id="phone" viewBox="0 0 16 15" className="phone">
<svg width="15" height="15" viewBox="0 0 16 15" fill="none" xmlns="http://www.w3.org/2000/svg">
<path d="M10.7275 0L5.2729 0C4.33199 0 3.56836 0.763626 3.56836 1.70454V13.2955C3.56836 14.2364 4.33199 15 5.2729 15H10.7275C11.6684 15 12.432 14.2364 12.432 13.2955V1.70454C12.432 0.763626 11.6684 0 10.7275 0ZM8.00019 14.3182C7.43427 14.3182 6.97746 13.8614 6.97746 13.2955C6.97746 12.7295 7.43427 12.2727 8.00019 12.2727C8.56611 12.2727 9.02292 12.7295 9.02292 13.2955C9.02292 13.8614 8.56608 14.3182 8.00019 14.3182ZM11.0684 11.5909H4.93201V2.04546H11.0684V11.5909Z" fill="#664EF9"/>
</svg>
</symbol>

<symbol id="home-run" viewBox="0 0 12 12">
<svg width="12" height="12" viewBox="0 0 12 12"  xmlns="http://www.w3.org/2000/svg">
<g clip-path="url(#clip0_305_2083)">
<path d="M11.7985 5.36427L6.41446 0.458394C6.17814 0.243027 5.82177 0.243051 5.58554 0.458371L0.201516 5.3643C0.0122119 5.5368 -0.0503192 5.80258 0.042165 6.04138C0.134673 6.28019 0.359907 6.43448 0.616008 6.43448H1.47593V11.3498C1.47593 11.5447 1.63394 11.7027 1.82883 11.7027H4.77993C4.97481 11.7027 5.13283 11.5447 5.13283 11.3498V8.36537H6.86724V11.3498C6.86724 11.5447 7.02526 11.7027 7.22014 11.7027H10.1711C10.366 11.7027 10.524 11.5447 10.524 11.3498V6.43448H11.3841C11.6402 6.43448 11.8654 6.28016 11.9579 6.04138C12.0503 5.80256 11.9878 5.5368 11.7985 5.36427Z"  />
<path d="M10.4317 1.00195H8.06177L10.7846 3.47779V1.35483C10.7846 1.15995 10.6266 1.00195 10.4317 1.00195Z" />
</g>
<defs>
<clipPath id="clip0_305_2083">
<rect width="12" height="12" fill="white"/>
</clipPath>
</defs>
</svg>
</symbol>
<symbol id="search" viewBox="0 0 18 18">
<svg width="18" height="18" viewBox="0 0 18 18" fill="none" xmlns="http://www.w3.org/2000/svg">
<path d="M16.8676 15.2581L13.5441 11.9344C13.3941 11.7844 13.1907 11.7011 12.9774 11.7011H12.434C13.3541 10.5243 13.9008 9.04417 13.9008 7.43401C13.9008 3.60364 10.7973 0.5 6.96711 0.5C3.13693 0.5 0.0334473 3.60364 0.0334473 7.43401C0.0334473 11.2644 3.13693 14.368 6.96711 14.368C8.57718 14.368 10.0573 13.8213 11.234 12.9012V13.4446C11.234 13.658 11.3173 13.8613 11.4673 14.0113L14.7908 17.335C15.1042 17.6483 15.6108 17.6483 15.9209 17.335L16.8642 16.3916C17.1776 16.0782 17.1776 15.5715 16.8676 15.2581ZM6.96711 11.7011C4.61033 11.7011 2.70024 9.79424 2.70024 7.43401C2.70024 5.07711 4.607 3.16693 6.96711 3.16693C9.32388 3.16693 11.234 5.07378 11.234 7.43401C11.234 9.79091 9.32722 11.7011 6.96711 11.7011Z" fill="white"/>
</svg>
</symbol>

<symbol id="vk" viewBox="0 0 18 11">
<svg width="18" height="11" viewBox="0 0 18 11"  xmlns="http://www.w3.org/2000/svg">
<path d="M14.7034 6.23046C14.4274 5.88189 14.5064 5.72681 14.7034 5.41522C14.707 5.41167 16.9855 2.26311 17.2203 1.19534L17.2217 1.19463C17.3384 0.805504 17.2217 0.519531 16.6576 0.519531H14.7909C14.3157 0.519531 14.0966 0.764956 13.9793 1.03955C13.9793 1.03955 13.0289 3.31453 11.6844 4.78921C11.2504 5.21533 11.0498 5.35191 10.8129 5.35191C10.6963 5.35191 10.5149 5.21533 10.5149 4.8262V1.19463C10.5149 0.727964 10.3818 0.519531 9.98843 0.519531H7.0533C6.75523 0.519531 6.5781 0.737212 6.5781 0.939955C6.5781 1.38243 7.25035 1.48416 7.32006 2.72907V5.43016C7.32006 6.02203 7.21264 6.13087 6.97433 6.13087C6.33979 6.13087 4.79966 3.84664 3.88696 1.23233C3.70271 0.725119 3.52274 0.520243 3.04398 0.520243H1.17662C0.643795 0.520243 0.536377 0.765667 0.536377 1.04026C0.536377 1.52542 1.17092 3.93769 3.48717 7.12466C5.03085 9.30005 7.20482 10.4788 9.18245 10.4788C10.3712 10.4788 10.5163 10.217 10.5163 9.76671C10.5163 7.68807 10.4089 7.49173 11.0043 7.49173C11.2803 7.49173 11.7555 7.62832 12.8652 8.6776C14.1336 9.92179 14.3421 10.4788 15.052 10.4788H16.9187C17.4508 10.4788 17.7204 10.217 17.5653 9.70055C17.2103 8.61428 14.8116 6.37985 14.7034 6.23046Z" />
</svg>
</symbol>
<symbol id="fb" viewBox="0 0 10 19">
<svg width="11" height="20" viewBox="0 0 10 19"  xmlns="http://www.w3.org/2000/svg">
<path d="M7.88394 3.79773H9.44256V1.08311C9.17366 1.04612 8.24887 0.962891 7.17185 0.962891C4.92461 0.962891 3.38519 2.3764 3.38519 4.97434V7.36528H0.905334V10.4H3.38519V18.0359H6.42561V10.4007H8.80517L9.18291 7.36599H6.4249V5.27525C6.42562 4.39813 6.66179 3.79773 7.88394 3.79773Z" />
</svg>
</symbol>
<symbol id="viber" viewBox="0 0 18 18">
<svg width="18" height="18" viewBox="0 0 18 18" xmlns="http://www.w3.org/2000/svg">
<path d="M8.76711 0.477981C7.36991 0.496852 4.36357 0.726211 2.68185 2.26712C1.43344 3.50827 0.997224 5.33806 0.946417 7.60407C0.902868 9.86136 0.852061 14.1001 4.93842 15.2549V17.0114C4.93842 17.0114 4.91084 17.7154 5.37536 17.8606C5.94876 18.0421 6.27538 17.4984 6.81974 16.9178L7.83589 15.771C10.6303 16.0032 12.7715 15.4669 13.0182 15.387C13.5844 15.2056 16.7787 14.7984 17.3013 10.5589C17.8384 6.18146 17.04 3.42335 15.6029 2.17495L15.5956 2.17349C15.1601 1.77429 13.4182 0.504111 9.52051 0.489594C9.52051 0.489594 9.23309 0.471449 8.76711 0.477981ZM8.81574 1.7097C9.21131 1.70752 9.45446 1.72421 9.45446 1.72421C12.7497 1.73147 14.3254 2.72584 14.6956 3.05972C15.9077 4.09691 16.5305 6.58429 16.0747 10.2395C15.6392 13.7815 13.048 14.0065 12.5689 14.1589C12.3657 14.2243 10.4786 14.6888 8.10371 14.5364C8.10371 14.5364 6.33344 16.671 5.78182 17.2226C5.69472 17.317 5.59311 17.346 5.52778 17.3315C5.43343 17.3097 5.40439 17.1936 5.41165 17.0339L5.42617 14.1168C1.96329 13.1588 2.16652 9.54273 2.20281 7.6556C2.24636 5.76847 2.60201 4.22103 3.65445 3.17585C5.07487 1.89115 7.6283 1.71695 8.81502 1.7097H8.81574ZM9.07704 3.59682C9.04848 3.59673 9.02018 3.60227 8.99376 3.61313C8.96735 3.624 8.94334 3.63997 8.92311 3.66013C8.90288 3.68029 8.88683 3.70425 8.87588 3.73063C8.86493 3.757 8.85929 3.78528 8.85929 3.81384C8.85929 3.87159 8.88223 3.92698 8.92307 3.96781C8.9639 4.00865 9.01929 4.03159 9.07704 4.03159C9.61664 4.02129 10.1529 4.11798 10.655 4.31605C11.157 4.51413 11.6149 4.80968 12.0021 5.18564C12.7932 5.95501 13.1786 6.98567 13.1932 8.33569C13.1932 8.36429 13.1988 8.3926 13.2097 8.41902C13.2207 8.44544 13.2367 8.46944 13.2569 8.48966C13.2771 8.50988 13.3012 8.52592 13.3276 8.53686C13.354 8.54781 13.3823 8.55344 13.4109 8.55344V8.54691C13.4686 8.54691 13.524 8.52397 13.5649 8.48313C13.6057 8.4423 13.6286 8.38691 13.6286 8.32916C13.6556 7.69428 13.553 7.06056 13.3271 6.46659C13.1013 5.87263 12.7569 5.33086 12.3149 4.87426C11.4512 4.03232 10.361 3.59682 9.07631 3.59682H9.07704ZM6.20715 4.09764C6.0528 4.07564 5.89553 4.10633 5.76077 4.18474H5.75206C5.45448 4.35893 5.18012 4.57668 4.91882 4.86701C4.72285 5.09927 4.61325 5.3308 4.58422 5.55581C4.56714 5.68777 4.57954 5.82188 4.62051 5.94848L4.63503 5.95573C4.85874 6.61343 5.15066 7.24592 5.50601 7.84286C5.96662 8.67888 6.53254 9.45237 7.18991 10.1444L7.21168 10.1735L7.24072 10.1952L7.26249 10.217L7.28426 10.2388C7.97904 10.8978 8.75459 11.4661 9.59237 11.9299C10.5504 12.4525 11.1326 12.6993 11.4809 12.8009V12.8082C11.5826 12.8372 11.6755 12.8517 11.7698 12.8517C12.0672 12.83 12.3488 12.7094 12.5697 12.5091C12.8527 12.2551 13.0777 11.9735 13.2447 11.6759V11.6687C13.4116 11.3566 13.3536 11.0582 13.114 10.855C12.6313 10.4327 12.1087 10.0584 11.5535 9.73725C11.1834 9.53402 10.8059 9.65741 10.6535 9.86064L10.3269 10.2736C10.16 10.4769 9.85511 10.4478 9.85511 10.4478L9.8464 10.4551C7.58185 9.87443 6.97942 7.58157 6.97942 7.58157C6.97942 7.58157 6.95039 7.26947 7.16088 7.10979L7.56733 6.78317C7.7633 6.62349 7.90121 6.24606 7.69072 5.87589C7.37002 5.32045 6.99564 4.79778 6.57296 4.31538C6.48102 4.20135 6.35122 4.12409 6.20715 4.09764ZM9.45374 4.74362C9.39599 4.74381 9.34068 4.76694 9.29998 4.80791C9.25928 4.84888 9.23652 4.90434 9.23672 4.96209C9.23691 5.01984 9.26004 5.07515 9.30101 5.11585C9.34198 5.15654 9.39744 5.1793 9.45519 5.17911C10.1816 5.19172 10.8733 5.49189 11.3786 6.0138C11.6066 6.26531 11.7819 6.55996 11.8941 6.88034C12.0063 7.20073 12.0531 7.54036 12.0318 7.87915C12.032 7.93678 12.0551 7.99198 12.0959 8.03265C12.1367 8.07333 12.192 8.09617 12.2496 8.09617L12.2568 8.10488C12.2855 8.10488 12.3139 8.09923 12.3403 8.08824C12.3668 8.07725 12.3908 8.06115 12.4111 8.04085C12.4313 8.02055 12.4473 7.99646 12.4582 7.96996C12.4691 7.94346 12.4747 7.91507 12.4746 7.88641C12.4964 7.02269 12.2278 6.29687 11.698 5.71621C11.1681 5.13556 10.4278 4.80894 9.48422 4.74362C9.47407 4.74291 9.46389 4.74291 9.45374 4.74362ZM9.80939 5.91872C9.78027 5.91786 9.75127 5.92275 9.72404 5.9331C9.6968 5.94345 9.67188 5.95906 9.65068 5.97904C9.62949 5.99903 9.61243 6.02299 9.6005 6.04956C9.58856 6.07614 9.58197 6.1048 9.58112 6.13392C9.58026 6.16304 9.58515 6.19204 9.5955 6.21928C9.60585 6.24651 9.62146 6.27143 9.64144 6.29263C9.66143 6.31382 9.68539 6.33088 9.71196 6.34281C9.73854 6.35475 9.7672 6.36133 9.79632 6.36219C10.5149 6.39848 10.8633 6.76139 10.9068 7.50899C10.9087 7.56547 10.9325 7.61901 10.9731 7.65828C11.0137 7.69756 11.0681 7.7195 11.1246 7.71947H11.1318C11.1611 7.71856 11.1898 7.71177 11.2164 7.6995C11.2429 7.68723 11.2668 7.66973 11.2864 7.64805C11.3061 7.62637 11.3211 7.60096 11.3307 7.57332C11.3403 7.54569 11.3443 7.5164 11.3423 7.48721C11.2915 6.51461 10.7617 5.96953 9.8181 5.91872C9.81519 5.91866 9.81229 5.91866 9.80939 5.91872Z" />
</svg>
</symbol>
<symbol id="telegram" viewBox="0 0 18 15">
<svg width="18" height="15" viewBox="0 0 18 15"  xmlns="http://www.w3.org/2000/svg">
<path d="M16.2089 0.997407L1.56595 6.644C0.566623 7.04538 0.572405 7.60286 1.3826 7.85145L5.14204 9.02421L13.8403 3.53619C14.2516 3.28594 14.6274 3.42056 14.3185 3.69476L7.27118 10.0549H7.26953L7.27118 10.0557L7.01185 13.9308C7.39176 13.9308 7.55941 13.7565 7.77249 13.5509L9.59853 11.7752L13.3968 14.5808C14.0971 14.9665 14.6001 14.7683 14.7744 13.9325L17.2677 2.18173C17.5229 1.15846 16.8771 0.695132 16.2089 0.997407Z" />
</svg>
</symbol>

<symbol id="whatsapp" viewBox="0 0 18 18">
<svg width="18" height="18" viewBox="0 0 18 18"  xmlns="http://www.w3.org/2000/svg">
<path d="M15.1558 2.87929C14.3846 2.10244 13.4667 1.48655 12.4555 1.06738C11.4442 0.64821 10.3598 0.43412 9.26514 0.43754C4.67675 0.43754 0.942178 4.17211 0.942178 8.76365C0.942178 10.2308 1.32656 11.6654 2.05436 12.9257L0.872864 17.241L5.28692 16.0826C6.50723 16.7473 7.87449 17.0961 9.26409 17.0971H9.26724C13.8556 17.0971 17.5934 13.3625 17.5934 8.771C17.5961 7.67672 17.3821 6.59273 16.9635 5.58165C16.5449 4.57058 15.9302 3.65246 15.1548 2.88034L15.1558 2.87929ZM9.26724 15.6919C8.0271 15.6921 6.80973 15.3588 5.74272 14.7268L5.48961 14.5755L2.87038 15.2613L3.56982 12.7083L3.40599 12.4457C2.71049 11.3438 2.34295 10.0667 2.34632 8.76365C2.34854 6.92797 3.07897 5.16815 4.37729 3.87042C5.67561 2.57269 7.43576 1.84307 9.27144 1.84168C11.1188 1.84168 12.859 2.56423 14.1644 3.86965C14.8086 4.51152 15.3192 5.2747 15.6668 6.11507C16.0143 6.95544 16.1919 7.85636 16.1892 8.76575C16.1861 12.5854 13.0816 15.6909 9.26724 15.6909V15.6919ZM13.0617 10.507C12.8548 10.402 11.8308 9.89999 11.6407 9.83067C11.4506 9.76136 11.312 9.72565 11.1713 9.93569C11.0337 10.1426 10.6336 10.612 10.5117 10.7528C10.3899 10.8903 10.2691 10.9103 10.0623 10.8053C9.85536 10.7002 9.18218 10.4808 8.38821 9.77186C7.77068 9.2205 7.35165 8.53786 7.22982 8.33096C7.108 8.12407 7.21617 8.0096 7.32224 7.90773C7.41781 7.81531 7.52914 7.66513 7.63416 7.5433C7.73918 7.42148 7.77174 7.33641 7.84105 7.19568C7.91036 7.0581 7.87676 6.93628 7.82425 6.83125C7.77173 6.72623 7.3548 5.70227 7.18466 5.28534C7.01768 4.87785 6.84334 4.93457 6.71522 4.92721C6.59339 4.92091 6.45581 4.92091 6.31824 4.92091C6.18066 4.92091 5.95381 4.97342 5.76372 5.18032C5.57363 5.38721 5.03487 5.89236 5.03487 6.91632C5.03487 7.94028 5.77947 8.92854 5.8845 9.06927C5.98952 9.20684 7.35165 11.3104 9.43843 12.2105C9.93413 12.4237 10.3217 12.5518 10.6231 12.6505C11.1219 12.808 11.5746 12.7849 11.9327 12.7324C12.3328 12.6736 13.1635 12.2304 13.3379 11.7442C13.5122 11.2579 13.5122 10.842 13.4597 10.7559C13.4103 10.6635 13.2728 10.612 13.0627 10.506L13.0617 10.507Z" />
</svg>
</symbol>
<symbol id="list"  viewBox="0 0 15 15">
  <svg width="14" height="14" viewBox="0 0 15 15" xmlns="http://www.w3.org/2000/svg">
      <rect y="0.5" width="14.5036" height="3.22302" rx="1"  />
      <rect y="11.2773" width="14.5036" height="3.22302" rx="1" />
      <rect y="5.88867" width="14.5036" height="3.22302" rx="1" />
    </svg>
</symbol>
<symbol id="tiles"  viewBox="0 0 15 15">
<svg width="15" height="14" viewBox="0 0 15 14" xmlns="http://www.w3.org/2000/svg">
<rect x="0.00390625" width="5.44444" height="5.44444" rx="1"/>
<rect x="0.00390625" y="8.55469" width="5.44444" height="5.44444" rx="1"/>
<rect x="8.55957" width="5.44444" height="5.44444" rx="1" />
<rect x="8.55957" y="8.55469" width="5.44444" height="5.44444" rx="1"/>
</svg>
</symbol>
</svg> 