<svg width="25" height="25" viewBox="0 0 25 25" fill="none" xmlns="http://www.w3.org/2000/svg">
<path d="M24.2676 23.535H22.6465V2.30127C22.6465 1.89691 22.3186 1.56885 21.9141 1.56885H12.5C12.0955 1.56885 11.7676 1.89691 11.7676 2.30127V8.62947H3.0859C2.68135 8.62947 2.35348 8.95734 2.35348 9.36189V23.535H0.732422C0.327873 23.535 0 23.8629 0 24.2674C0 24.672 0.327873 24.9999 0.732422 24.9999H24.2676C24.6721 24.9999 25 24.672 25 24.2674C25 23.8629 24.6721 23.535 24.2676 23.535ZM3.81832 10.0943H14.9055V23.535H11.6634V20.345C11.6634 19.9404 11.3354 19.6126 10.931 19.6126H7.79305C7.3885 19.6126 7.06062 19.9404 7.06062 20.345V23.535H3.81832V10.0943ZM8.52547 23.535V21.0774H10.1986V23.535H8.52547ZM16.3704 23.535V9.36189C16.3704 8.95734 16.0425 8.62947 15.638 8.62947H13.2324V3.03369H21.1817V23.535H16.3704Z" fill="white"/>
<path d="M6.22363 11.7676C5.81908 11.7676 5.49121 12.0955 5.49121 12.5V13.2845C5.49121 13.689 5.81908 14.0169 6.22363 14.0169C6.62799 14.0169 6.95605 13.689 6.95605 13.2845V12.5C6.95605 12.0955 6.62799 11.7676 6.22363 11.7676Z" fill="white"/>
<path d="M6.22363 15.6899C5.81908 15.6899 5.49121 16.018 5.49121 16.4224V17.2069C5.49121 17.6114 5.81908 17.9393 6.22363 17.9393C6.62799 17.9393 6.95605 17.6114 6.95605 17.2069V16.4224C6.95605 16.018 6.62799 15.6899 6.22363 15.6899Z" fill="white"/>
<path d="M9.3623 14.0169C9.76685 14.0169 10.0947 13.689 10.0947 13.2845V12.5C10.0947 12.0955 9.76685 11.7676 9.3623 11.7676C8.95776 11.7676 8.62988 12.0955 8.62988 12.5V13.2845C8.62988 13.689 8.95776 14.0169 9.3623 14.0169Z" fill="white"/>
<path d="M9.3623 17.9398C9.76685 17.9398 10.0947 17.6117 10.0947 17.2073V16.4229C10.0947 16.0183 9.76685 15.6904 9.3623 15.6904C8.95776 15.6904 8.62988 16.0183 8.62988 16.4229V17.2073C8.62988 17.6117 8.95776 17.9398 9.3623 17.9398Z" fill="white"/>
<path d="M12.5 14.0169C12.9045 14.0169 13.2324 13.689 13.2324 13.2845V12.5C13.2324 12.0955 12.9045 11.7676 12.5 11.7676C12.0955 11.7676 11.7676 12.0955 11.7676 12.5V13.2845C11.7676 13.689 12.0955 14.0169 12.5 14.0169Z" fill="white"/>
<path d="M18.7764 12.5522C18.372 12.5522 18.0439 12.8801 18.0439 13.2847V14.0692C18.0439 14.4737 18.372 14.8016 18.7764 14.8016C19.1809 14.8016 19.5088 14.4737 19.5088 14.0692V13.2847C19.5088 12.8801 19.1809 12.5522 18.7764 12.5522Z" fill="white"/>
<path d="M18.7764 8.62939C18.372 8.62939 18.0439 8.95727 18.0439 9.36182V10.1463C18.0439 10.5509 18.372 10.8787 18.7764 10.8787C19.1809 10.8787 19.5088 10.5509 19.5088 10.1463V9.36182C19.5088 8.95727 19.1809 8.62939 18.7764 8.62939Z" fill="white"/>
<path d="M18.7764 4.70703C18.372 4.70703 18.0439 5.0349 18.0439 5.43945V6.22395C18.0439 6.6283 18.372 6.95637 18.7764 6.95637C19.1809 6.95637 19.5088 6.6283 19.5088 6.22395V5.43945C19.5088 5.0349 19.1809 4.70703 18.7764 4.70703Z" fill="white"/>
<path d="M15.6377 4.70703C15.2333 4.70703 14.9053 5.0349 14.9053 5.43945V6.22395C14.9053 6.6283 15.2333 6.95637 15.6377 6.95637C16.0422 6.95637 16.3701 6.6283 16.3701 6.22395V5.43945C16.3701 5.0349 16.0422 4.70703 15.6377 4.70703Z" fill="white"/>
<path d="M12.5 17.9398C12.9045 17.9398 13.2324 17.6117 13.2324 17.2073V16.4229C13.2324 16.0183 12.9045 15.6904 12.5 15.6904C12.0955 15.6904 11.7676 16.0183 11.7676 16.4229V17.2073C11.7676 17.6117 12.0955 17.9398 12.5 17.9398Z" fill="white"/>
<path d="M18.7764 16.4746C18.372 16.4746 18.0439 16.8025 18.0439 17.207V17.9915C18.0439 18.3959 18.372 18.7239 18.7764 18.7239C19.1809 18.7239 19.5088 18.3959 19.5088 17.9915V17.207C19.5088 16.8025 19.1809 16.4746 18.7764 16.4746Z" fill="white"/>
</svg>
