<svg width="25" height="15" viewBox="0 0 25 15" fill="none" xmlns="http://www.w3.org/2000/svg">
<path d="M24.2554 1.69808C24.4231 1.15111 24.2554 0.75 23.4625 0.75H20.836C20.1676 0.75 19.8622 1.097 19.6946 1.47811C19.6946 1.47811 18.3591 4.6764 16.4668 6.75017C15.8559 7.3536 15.5769 7.54415 15.2439 7.54415C15.0774 7.54415 14.8355 7.3536 14.8355 6.80663V1.69808C14.8355 1.04172 14.6427 0.75 14.0857 0.75H9.95847C9.54167 0.75 9.29015 1.05348 9.29015 1.34284C9.29015 1.96391 10.2363 2.10742 10.3333 3.85771V7.65472C10.3333 8.48635 10.1812 8.63809 9.84589 8.63809C8.956 8.63809 6.79056 5.42804 5.50543 1.75336C5.25511 1.03936 5.0024 0.751177 4.33169 0.751177H1.70633C0.955376 0.751177 0.805664 1.09818 0.805664 1.47929C0.805664 2.16388 1.69555 5.55155 4.9509 10.032C7.12112 13.0915 10.1765 14.75 12.9599 14.75C14.6283 14.75 14.8343 14.3818 14.8343 13.7466V11.4341C14.8343 10.6977 14.9936 10.5495 15.5218 10.5495C15.9098 10.5495 16.5781 10.7424 18.1364 12.2163C19.9161 13.9642 20.2108 14.7488 21.2108 14.7488H23.8362C24.586 14.7488 24.9608 14.3806 24.7452 13.6537C24.5093 12.9303 23.6589 11.8775 22.5307 10.6319C21.9175 9.9214 21.0012 9.15682 20.7222 8.77453C20.3329 8.28168 20.4455 8.06407 20.7222 7.62649C20.7234 7.62767 23.9224 3.20253 24.2554 1.69808Z" fill="#1E2123"/>
</svg>
